<?xml version="1.0" encoding="utf-8"?>
<!-- Generator: Adobe Illustrator 23.0.6, SVG Export Plug-In . SVG Version: 6.00 Build 0)  -->
<svg version="1.1" id="Lag_1" xmlns="http://www.w3.org/2000/svg" xmlns:xlink="http://www.w3.org/1999/xlink" x="0px" y="0px"
	 viewBox="0 0 841.9 1190.6" style="enable-background:new 0 0 841.9 1190.6;" xml:space="preserve">
<style type="text/css">
	.st0{fill:#FEFEFE;}
	.st1{fill:#282723;}
	.st2{fill:#2B2723;}
	.st3{fill:#595957;}
	.st4{fill:#626260;}
	.st5{fill:#FDFDFD;}
	.st6{fill:none;}
	.st7{fill:#E9E9E9;}
</style>
<circle cx="421.2" cy="595.7" r="396.2"/>
<path class="st0" d="M529.9,445.9c-0.1,1.1-0.5,1.9-1.8,1.9c-1.4,0.1-2.2-0.5-2.2-1.9C527.2,445.9,528.5,445.9,529.9,445.9z"/>
<path class="st0" d="M669,577.9c-2.7-1-6.4,2.4-9.2-1.6c-0.7-1-1.9,0.6-1.9,1.9c0,2.2-0.4,4.5,0.2,6.5c3.2,10.3,1.7,20.8,0.7,31.1
	c-0.6,6.9-11.1,13.4-18,12.8c-6.3-0.6-10.9-5.4-17.4-5.2c-2.9,0.1-5.6,0.2-8,1.5c-4.6,2.4-8.9,3-14.1,0.9
	c-5.5-2.2-11.9-1.8-17.6-1.4c-3.9,0.3-7.7,4-11.3,6.5c-3.7,2.6-7.5,4.2-12.2,5.1c-6.3,1.2-12.3,4.3-17.3,8.4
	c-10.5,8.6-20.9,17.3-29.9,27.6c-12.5,14.3-27.5,25.9-43,36.9c-5.2,3.7-11.6,5.8-15.5,11.4c-1.7,2.3-5.3,1.6-8,2.4
	c-8.1,2.4-16.4,1.1-24.6,1.2c-0.8,0-1.9,0.4-2.2-0.6c-2-7.1-4.7-1.9-6.5-0.1c-7.1,7-13.4,14.7-19.4,22.6c-2.4,3.1-5.4,5.8-8.6,8.2
	c-11.6,8.6-24.4,14.9-39.1,12.6c-10.6-1.7-17.5-9.3-14.8-21.3c1.9-8.2,5.9-15.5,11.5-21.8c9-10.3,16.1-21.9,23.1-33.6
	c0.8-1.3,1.8-3,0.6-4.1c-1.6-1.5-2.6,0.7-3.5,1.6c-9.3,9.6-20.7,16.6-30.7,25.3c-8,7-16.4,13.5-24.6,20.1c-7.3,5.9-16.1,9.3-25,10.2
	c-6.6,0.7-14.2-0.8-20.6-4.4c-0.5-0.3-0.9-1-1-1.6c-2.1-12.7-0.5-24.8,6.3-35.9c1-1.6,2.7-3.2,0.9-4.7c-1.7-1.4-3.1,0.7-4,1.9
	c-4.1,5.5-10.2,8.2-15.9,11.4c-7.9,4.4-24.9,0.9-30.2-4.1c-4.9-4.7-5-10.3-3.3-16.1c2-7,6.5-12.7,11.3-18c3.4-3.8,7.2-7.4,10.9-11
	c2.1-2,3.1-4.6,1.4-6.6c-1.9-2.3-4.3-0.1-6,1.3c-5.7,4.5-15.2,2.2-18.3-4.5c-2.1-4.4-4.1-4.9-7.9-2c-3.1,2.3-7,2.8-10.3,2.6
	c-6.1-0.2-13.3,0.5-17.5-5.6c-2.2-3.1-6.1-4.4-7.4-8.2c-3.1-8.8-2.2-16.5,5-23c1.4-1.2,2.7-2.5,3.4-4.3c1.1-2.7,4.1-6.3-2.6-4.7
	c-2.8,0.7-3-2.2-4.2-3.6c-6.9-7.8-6.2-17.3,2.8-25.2c6.3-5.6,14.4-6.2,22.1-7.8c0.8-0.2,1.8,0.2,2.5-0.2c2.1-1.3,5.8,0.4,6.6-2.5
	c0.8-2.9-3-2.2-4.5-3.7c-9.2-9.5-5.1-19.2,5.9-23.4c11.5-4.4,23.6-6.9,36.4-5.5c6.7,0.8,13.9-0.4,20.9-1c13.8-1.3,26.9-5.8,40.6-6.7
	c4.9-0.3,9.2-2.7,13.8-4c15.5-4.2,31.1-7.9,47-10.6c6.8-1.1,14-1.5,20.5-3.2c7.5-2,15-4.1,22.6-5.5c7.6-1.4,15.4-2.5,22.9-4
	c10.5-2.1,19.6-6.7,24.4-17.9c3.8-8.9,9.2-17.4,18.5-22.2c7.1-3.6,14.9-4.2,22.5-5.6c8.2-1.4,16.5-2.2,24.6,0.9
	c2.4,0.9,4.7-1.1,7.3-0.1c3.9,1.4,7.8,2.1,11,5.1c2.9,2.7,6.9,3.8,10.5,5.4c6.3,2.8,12.2,6.4,15.8,12.9c2,3.5,6.5,4.2,9.8,5.4
	c5.5,1.9,10.5,4.8,16.1,6.5c3.2,1,6.3,1.8,9.4-0.6c2.5-2,5.4-0.9,8.1-0.1c12.7,3.8,25,8.7,36.9,14.4c2.2,1.1,4.4,2.3,6.8,3.1
	c7.2,2.3,9.8,10,16.2,13.3c11.2,5.6,12.1,17.5,16.3,27.4c2.3,5.3,3.4,10.7,2,16.9C686.6,573.2,680,577.8,669,577.9z"/>
<path class="st0" d="M665.9,584.9c-0.1-0.1-0.3-0.2-0.4-0.2C665.6,584.7,665.7,584.8,665.9,584.9L665.9,584.9z"/>
<path class="st0" d="M349.9,705.8c0.1-0.1,0.2-0.3,0.3-0.4C350,705.6,350,705.7,349.9,705.8C349.9,705.9,349.9,705.8,349.9,705.8z"
	/>
<path class="st1" d="M485.8,455.9c4-1.2,8-2.5,12-3.7c1.2,1.5,2.3,1.5,3-0.4c0.9-0.8,2.6,0.2,3-1.5c3.3,0,6.7,0,10,0
	c0.7,1,1.3,1,2,0c0.7,0,1.3,0,2,0c0,0.3,0,0.6,0.1,0.9c0.2,2.5,2.1,2.2,3.7,2.1c2.4-0.1,4.8,0.2,6.6,1.6c3.5,2.6,7.5,3.1,11.6,3.5
	c0.1,0.1,0.3,0.1,0.4,0.2c-0.1-0.1-0.3-0.2-0.4-0.2c0.1-0.7,0.2-1.3,0.3-2c4.6,1.6,8.5,4.4,12.8,6.7c-0.2,2.2,1.2,2.4,2.8,2.3l0,0
	c0.1,2,1.6,2,3,2c1,0.9,2.1,1.9,3.1,2.8c0,1.4,0,2.8-0.1,4.2c-1.3-0.1-2-2.4-3.8-1.2c3.6,4,3.8,4.1,5.7,2.2c2.4-0.9,3.9,3.4,6.6,1.1
	c0.2,0.1,0.3,0.2,0.4,0.3c-1.2,4.7,1.5,4.9,4.9,4.2c2.4,1.2,4.8,2.3,7.2,3.5c0.1,1.2,0.4,2.3,1.8,2.5c1.1,0.2,1.1-0.9,1.2-1.6
	c2.9-1,6-0.6,9-0.5c3,4.3,6,4.9,8,1.6c5.6,0.4,10.6,2.8,16,4.1c0,1,0,2,0,3c-1.3,0.2-2.8-0.4-3.9,0.8l-0.2,0.2
	c-2.9-0.9-5.9-0.6-8.8-0.2c-1.9-1.4-3.7-3.3-5.7-0.1c-0.8,1.2-1.9,0.7-3.1,0.4c-7.8-1.8-15.5-3.6-23.3-5.3c-1.8-1.5-3.8-2.5-6-3
	c-0.1-0.9-0.1-2-1.4-2.2c-0.2,0-0.5,1-0.7,1.6c-1.1-1-3.1-0.7-3.9-2.3c-1.9-4.6-6-6.7-9.9-9.1c-5.7-5.7-12.5-9.5-20-12.3
	c-7.7-2.9-15.7-0.5-23.5-1.3c-4.4-0.5-9.1,0.6-13.6,1c8.4,1.7,16.6,3.8,25.1,3.7c2.9,1.8,6.7,0.1,9.3,2.4
	c5.5,4.7,12.2,7.6,17.4,12.7c5.9,5.9,11.3,12.5,20.3,14c0.9,0.1,1.9,0.2,2.8,0.3c1.7,1.9,3.7,2.5,6.2,2.7c2.6,0.2,6-0.7,7.5,1.4
	c2.5,3.6,7.7,1.1,9.7,5.6c1,2.3,4.3,1.7,6.7,2c1.6,4.4,5.7,3.3,9,3.9c4,1.3,8,2.7,12,4c2.3,0.5,4.3,3,7,1.1c3.6,0.1,5.4,3.3,8.1,4.8
	c-1.5,4.8,2.2,4.4,5,5.1l0,0c0,1-0.4,2.5,0.1,2.8c1.9,1.5,1.1,7.1,6,4.1c0.3,0,0.6,0.1,0.9,0.2c-0.2,2.2,0.9,3,2.9,2.9
	c3.6,1.7,5.6,5,8,7.9c0.3,0.4,0.7,0.7,1,1.1c0.3,1,0.7,2,1,3c-1.8,2.7-1.2,4.3,1.9,5.1c4.4-0.3,7.7-3.8,12.1-4.1c0,1,0,2,0,2.9
	c-8.1,4.5-16.4,8.5-25.9,9.1c-1.3,0-2.8-0.3-3.1,1.6c-4.8,0.1-9.6,0.3-14.5,0.3c-3.3,0-5.7,1.3-6.9,4.6c-1.5,4.2-3.3,8.3-4.9,12.5
	c-0.3,0.3-0.5,0.6-0.8,0.9c-0.7,2.1-4.1,2.5-3.5,6c3.5-0.4,6.6-1.6,9.5-3.6c6-4.1,12-8.2,18.1-12.3c0.3,1-0.7,3.4,2,2
	c1.5,0,2.9-0.4,4.3-0.5c4.7-0.2,9.7-1.4,13.7,2.5c3.3,1.3,7.1,3.5,10.1,0.7c4.1-3.9,8.4-8.1,7.8-14.7c0.2-3.9,0.7-7.8-1.9-11.2
	c0-1.1,0.1-2.2-1-2.9c-3.9-12.6-10.7-22.8-22.8-29.2c-6.5-3.4-12.3-8-19.2-10.8c-0.3-0.6-0.6-0.6-1,0c-0.8,0.1-1.6,0-2.1-0.8
	c-1.2-3.4-4-3.9-7-4.1c-1.9-0.1-2-1.5-2-2.9c0-0.4,0-0.7,0.1-1.1c1.7,0.5,3.3,1.5,5.2,0.6c-1.4-1.7-3.7-1.4-5.2-2.6c0.3-1,0.7-2,1-3
	c6.4,1.3,12.1,4.5,18.1,6.7c0,1.1-0.1,2.2-0.1,3.2c-1.7-0.6-3-2.8-5.4-1.4c1.3,1.8,3.3,2.7,5.1,3.8c1.3,0.8,2.2,0.6,2.2-1.1
	c2.6-2.3,4.5,1.8,7,0.8c0.9,0,1.6,0.4,2,1.1c1.5,3.3,4.9,4.6,7.6,6.5c2,1.4,3.8,4,6.8,2.2c3.6,3.7,7.3,7.2,9.8,11.7
	c-0.1,1.6-0.3,3.3,2.1,3.3c3.7,4.4,5.1,9.7,6.6,15.1c-1.8,2-1.5,3.2,1.8,6c5.1,14.5,2.6,20.2-12.4,28.1c-1.5-0.1-3.1-0.2-3.2,2
	c-1.8,1.6-3.9,1.1-6,0.7c-0.5-2-1.5-2.3-3-0.8c-1-0.2-1.9-0.3-2.9-0.5c-0.9-0.2-1.9-0.9-2.7,0c-0.8,0.9,0,1.8,0.3,2.7
	c1.6,4.5,3.3,8.9,2.5,13.9c-0.3,0.3-0.9,0.6-0.9,0.9c-0.1,0.8,0.7,1,1.3,1.1c1,7.5-2.9,14-4.1,21c-1.8,0.4-1.5,1.8-1.5,3.1
	c-6.6,10.5-11.8,11.9-24,4.9c-0.5-2.2-1.5-2.6-3.1-0.9c-7.1-0.5-14.1,0.5-21.1,2.1c-4.6,1-9.3,0.9-14,0.1
	c-6.9-1.2-13.6-1.6-19.9,2.9c-7.3,5.1-17,6.2-24.1,11.4c-11,8.1-23.8,14.3-32.2,25.4c-8.4,11.2-18.5,20.7-29.8,28.4
	c-10.4,7.1-19.4,16-30.4,22.2c-4.6,2.6-9.2,5.3-14.1,7.2c-6.3,2.4-12.8,1.1-19.1-0.4c-8.3-1.9-10.1-1.3-15.3,5.2
	c-10.2,12.6-21,24.5-35.8,32.1c-5.4,2.8-11.5,3.4-17.2,5.3c-3.3,0-6.7,0-10,0c-1.2-2.3-3.7-2.5-5.8-3.3c-6.3-2.5-8.3-6.4-9.4-13
	c-2.1-13.3,6-22.6,13-31.1c8.2-9.8,14.7-20.4,22.1-31.5c-3.5,0.2-5.5,2-7.4,3.5c-11.3,8.9-22.6,18-33.7,27.2
	c-11.6,9.6-23.8,18.5-38.4,23.1c-7.9,2.5-15.8,3.2-23-2.5c-4.9-3.9-7.5-14.2-5.2-19.9c2.6-6.2,3.4-13,6.7-19.2
	c-5,2.7-9.6,5.6-14.5,8c-10.8,5.2-25.9,3.4-34.7-4.7c-3.5-3.2-4.3-15-0.9-19.3c5.3-6.7,8.7-14.8,15.4-20.5c2-1.7,1.4-4.7,3.5-6.9
	c-3.9,0-7.7-0.1-11.6,0c-4.4,0.1-8-2-10.1-5.3c-2.2-3.4-4.1-2.4-7-1.8c-11.2,2.4-22.8,3.1-31.1-6.4c-8.3-9.5-9.2-20,0.8-29.2
	c1.8-1.7,3.8-3.2,5.2-5.6c-3.6-1.5-6.8-3.3-9.2-6.3c-6.4-7.7-5-19.8,3-25.9c7.6-5.8,16-9.2,25.6-9.5c1.1,0,2.4,0.1,3.3-1.2
	c-1.9-2.7-4.8-4.6-6-8.2c-2.6-8.3,0.8-15,8.6-18.9c14.1-7,28.6-8.9,44-6.7c6.3,0.9,12.5-0.7,18.7-1.7c11.1-1.8,22.4-2,33.4-4.2
	c10.8-2.1,21.5-5.3,32-9.1c6-2.2,12.3-3.6,18.8-4.2c17-1.7,34-3.8,50.5-9.2c12.1-4,24.7-6.7,37.2-9.4c6.1-1.4,10.6-4.2,13.7-9.6
	c3.5-6.2,7.4-12.2,11-18.3c3.4-5.9,9.8-8.4,16.3-10.2C482,458.5,483.1,458.2,485.8,455.9z M311.8,664.2c-0.9-0.1-1.6,0.1-2.1,0.9
	c-2.2,0.4-3.4,1.9-4.8,4.1c3.2-0.2,4.4-1.6,5-3.9C310.8,665.3,311.5,665,311.8,664.2c0.1-0.1,0.3-0.1,0.4-0.2c0.1-0.1,0-0.2,0-0.3
	C312.1,663.9,312,664,311.8,664.2z M563.8,628.2c-0.6,0.1-1.4,0.1-1.6,0.9c0,0.2,0.3,0.5,0.4,0.7c0.4-0.2,0.8-0.5,1.1-0.7
	c0.1-0.1,0.3-0.2,0.4-0.2C564.1,628.6,564,628.4,563.8,628.2z M249.8,584.2c-0.8,0-1.6,0.1-1.5,1.2c0,0.1,0.7,0.3,0.7,0.3
	C249.3,585.3,249.6,584.7,249.8,584.2c0.4-0.1,0.8-0.2,1.3-0.3c-0.1-0.2-0.2-0.3-0.4-0.5C250.4,583.6,250.1,583.9,249.8,584.2z
	 M398.8,652.2c-1.7-0.1-3.3,0.1-4,2c-2.5,0.3-5.4-0.1-7.6,0.9c-14.2,6.7-29.3,11.2-42.6,19.7c-3.5,2.3-7,4.9-8.9,8.9
	c-3.5,2.2-6.7,4.8-9.7,7.7c-12,11.4-24.4,22.3-38.7,30.8c-1.7,1-4.4,1.2-4.7,3.9c-2.6,0.4-5.3,0.6-7.8,1.2c-2.9,0.7-3.5,3.5-3.7,5.9
	c-0.2,2.7,2.3,3,4.3,3c4.3,0.1,8.6,0.4,12.8-1.1c14.2-5.2,25.1-15.2,36.1-25c8.9-7.9,17.2-16.5,26.8-23.7c9-6.8,17.8-14,29.5-15.7
	c4.5-0.6,6.5-4.9,9.7-7.4c2.4-1.9,0.1-3-0.3-4.5c-0.2-0.9,0.7-1.3,1.4-1.8c1.2-0.8,2.9-1.1,3.4-2.8
	C396.4,654.1,397.9,653.6,398.8,652.2c0.8,0,1.6-0.1,2-0.9c1.3,0,2.6,0.1,3.8,0.1c-0.6,1.6-1.2,3.2-1.8,4.9
	c-11.2,15.9-24.5,30-37.7,44.3c3.4-0.3,5.2-2.8,7.4-4.7c9.4-8.3,16.6-18.6,24.7-28c2.6-3.1,7-4.8,7.5-9.5c1.7-0.8,2.9-2.2,3.8-3.8
	c0.8-1.4,2-3.1,0.6-4.6c-1.1-1.2-2.8-1.7-4.5-0.6c-1.6,0-3,0.7-4.1,1.8C400,651.2,399.2,651.4,398.8,652.2z M460.9,644.2
	c-0.8,0.4-1,1.1-1.1,1.9c-5.9,6.5-13.6,11.1-19,18.1c-1.3,0.6-2,1.6-2.1,3c-0.6,1-1.3,2-1.9,3c-2.6,2.3-5.3,4.7-7.9,7
	c-1.2,0.6-1,1.8-1.1,2.9c-0.3,0.4-0.7,0.7-1,1.1c-1.5,0-2.9,0.1-2.9,2.2c-2.1,4.4-6.6,7.1-8.3,11.8c-2.1-0.1-3,1-2.8,3
	c-1.3,1.9-2.8,3.7-4.2,5.4c-5,5.9-10.4,11.4-15,17.8c-8.1,11.3-16.5,22.4-29.6,28.8c-5.6,2.7-11.1,5.3-17.6,3.3
	c-1.8-0.5-3.2,0.1-4.3,2c4.6,2.1,9,5.1,14,4.5c7-0.9,13.6-3.8,19.9-7.3c7.7-3.5,13.9-8.9,18.9-15.6c8.4-11.2,17.6-21.4,29.1-29.7
	c6.9-5,13.6-10.6,19.3-17c1.3-1.7,3.2-2.7,4.8-4.2c7-6.4,12.7-14,19.6-20.6c7.3-6.9,15.5-12.9,22.3-20.3c3.2-0.9,6-2.6,8.7-4.7
	c5.9-4.7,10.9-10.6,18-13.9c1.7-0.8,2.7-2.4,2.6-4.5c2.2-1.7,3-4.8,5.8-6.1c2.2,0,4.7,0.4,5.1-2.9c5.6-1.1,8.7-5.9,13.3-8.5
	c-24,0.2-42.5,13.1-61.3,25.4c-0.4,0.1-0.7,0.2-1.1,0.2c-0.7-1.4-4.2-1.6-1.9-4.3c6.1-4.3,11.5-9.7,18.7-12.4c5.5-2.1,10.8-5,16-7.7
	c5.2-2.7,10.1-6.4,16.3-6.8c1,0,2.1,0.2,2.9-0.8c2.2-0.1,4.3-0.2,6.5-0.2c1.6-0.1,3.4,0.2,4.4-1.6c3.7-6.9,10.2-11,16.2-15.5
	c1.6,1.2,3.2,4,5,0.2c3.1-1.4,2.8-2.7,0-4.1c-1-2.8-3.7-3-5.9-4c-6-7-9.2-15.4-12.9-23.6c-1.5-3.3-3.5-5.1-7.2-4.2
	c-1.9-2.3-3.9-2-5.9-0.1c-0.4-0.4-0.7-0.7-1.1-1.1c0-0.6,0-1.3,0-1.9c2-1.4,2.8-3,1-5.1c-2.1-3.9-5.8-2.2-8.3-1.5
	c-4.1,1.1-5.8,0-6.5-3.9c-0.9-5.1-3.9-7.5-9.2-6.4c-2.3-0.4-4.7-0.8-7-1.1c-0.3-0.7-0.7-1.4-1-2c1-1,3-1.4,2.7-3.2
	c-0.4-2.1-2.7-1.4-4.1-2c-2.6-1.1-4.8,0.3-7.1,1c-5.4,1.7-10.8,3.8-16.5,4.2c2.5-3.3,6.2-4.5,9.8-5.8c2.1-0.7,4.5-1.2,2.3-4.2
	c-3.5-4.2-7.2-1.7-10.5,0.1c-4.9,2.7-9.5,6-14,9.2c-2.4,1.7-4.9,3.5-5.8,6.6c-0.3,0-0.7,0-1,0.1c-1.8-0.7-3.2-1.7-2.8-3.9
	c2.4-3.6,8.2-4.4,8.3-10c0.9-0.1,1.6-0.5,1.5-1.5c0-0.4-0.5-1-0.8-1c-0.8-0.1-0.9,0.7-1,1.3c-1,0.1-2,0.1-3.1,0.2
	c-2-1.3-3.9-2.1-5,1c-3.2-0.5-6.3,2.2-10.1,0.2c4.8-3.8,10.6-4.8,15.1-8.1c2.4,0.2,4.7-0.4,7-1.1c3.6-1.3,2.1-2.6,0-3.9
	c-2.9-3.5-7.5-2.1-11.1-3.8c-0.1-1.2,0.5-3-1.6-2.9c-1.6,0.1-1.2,1.6-1.3,2.7c-3.4,3-8.5,2.1-12,5c-1.3,0.3-2.7,0.4-3.8,1
	c-6.5,3.7-13.7,5.7-21,7.2c-1.3,0.3-2.6,0.7-3.8,1.3c-1.5,0.7-4.1,1-3.9,2.6c0.3,1.8,0.7,4.1,2.9,5.4c1.4,0.9,2.7,1.9,4.5,1.9
	c-0.3,0.6-0.6,1.1-0.9,1.7c-3.5-0.1-6.7-1.1-9.8-3c-5.7-3.5-11.5-5.9-18.7-2.9c-3.6,1.5-7,3.4-10.6,5.1c-3,0.4-5.4,2.4-8.2,3.5
	c-7.5,3-8.1,7.4-1.6,12.3c1.1,0.8,2.2,1,0.8,2.4c-7.8,0.6-15.2-2.7-23-2.3c-10.5-0.8-13.3,8.7-20.6,14.8c8,0.1,14.5,1.4,20.8,3.1
	c2,0.5,3.4,1.3,1.5,2.8c-2.6,2.1,0.3,4-0.1,6.1c-2.5-0.7-4.1-2.8-6.5-2.9c-7.8-7.8-22.7-9.4-33.1-3.7c-2.7,1.5-5.9,2.2-8.1,4.7
	c-12.4,5.1-23.8,12.1-35,19.6c-8.4,5.6-16.8,11.3-24,18.5c-4.5,2.1-9.5,3.7-9,10.1c-6,5.6-9.7,12.7-13.8,19.7
	c-0.9,1.5-1.3,3.4-1.6,5.2c-0.6,3.6,2.1,7.5,5.4,8.1c3.5,0.5,6.6-0.9,9.3-2.8c6.8-4.6,13.5-9.2,18.9-15.8
	c4.9-5.9,11.3-10.7,17.6-15.4c10.7-7.9,19.3-18.3,30.9-25c9.8-5.6,19.9-10.6,30.7-14.1c3-1,6-1.5,8.3,1.2c2.3,2.8,3.7,5.5,1.8,9.8
	c-2.4,5.3-6.2,8.8-10.5,12.1c-3.4,2-6.7,4.1-10.1,6.1c-1.4,0-2.8,0.1-2.9,2c-0.6,1.2-1.5,1.9-2.9,2.1c-2.1-0.4-4.1,0.6-6.1,0.9
	c-1-1-2-0.2-2.6,0.3c-7.5,5.9-15.9,10.8-21.8,18.5c-4.7,3.2-8.9,6.9-12,11.7c4.2-3.8,10-5.7,13.5-10.4c5.1-3.3,9.5-7.5,13.9-11.7
	c1.4-1.4,2.6-3.1,5-2.5c-0.1,4.2-3.6,6.2-5.9,9c-5.6-0.2-6.6,5.4-10,7.9c-0.5,0.3,0.1,1.5,0.8,2.1c-8,7.9-18.1,13.1-26.8,20.1
	c-1.5-0.1-3-0.2-3.1,2c-6.6,5.4-14.8,8.8-20.2,15.7c-3.4,4.5-8.3,8.1-9,14.3c-3.4,2.7-3.7,6.6-2.5,10c1.2,3.3,5.1,3,8.2,3.1
	c1.5,0,3,0,4.5,0c4-0.5,9,2.1,11.1-3.8c9.1-5,15.5-13.4,24-19.1c7.7-4,14.2-9.9,19.9-16.1c11.2-12.1,24-22.3,36.3-33.1
	c5.3-4.6,11.8-7.1,17.7-10.8c1-0.2,1.9-0.5,2.9-0.6c7.3-0.6,14.5-2.9,21.8-0.6c0.1,7.1-3.4,12.6-8.1,17.5c-1.2,1.3-2.8,2.4-3,4.4
	c-7.5,4.6-15.4,9.1-20.6,16c-4.8,6.4-10.5,11.5-16.6,16c-15.2,11.4-29.9,23.2-42.9,37c-4,4.2-7.6,8.7-10.1,14.1
	c-0.8,1.7-1.2,3.7,0,5.2c1.2,1.4,3.1,0.6,4.7,0.5c9.4-0.5,17.4-4.9,23.5-11.3c4.4-4.7,9.5-8.6,13.7-13.3c3-3.3,7.6-4.7,9.6-9
	c6.3-3,11.5-7.7,16.6-12.2c11.2-9.7,22.9-18.4,36.6-24.1c6.3-2.6,13-3.5,19.6-4.9c3.5-0.8,7-1.8,10.1-3.9c3-1.9,6.3-3.2,9.8-1
	c0.7,1.9-0.8,4.3,1.2,5.9c-0.4,7.5-4.7,13.6-9,18.9c-9.3,11.5-18.2,23.6-30.1,32.8c-8.8,5.2-15.3,12.9-22.1,20.3
	c-8.6,5.5-11.4,14.1-12.7,23.5c-0.5,3.4,2,5.2,5,4.4c6.2-1.6,13.2-0.8,18.4-6c3.6-3.5,7.6-6.6,10.5-10.8c0.8-0.6,1.6-1.2,2.2-1.9
	c10.7-13.2,21.6-26.2,32.9-38.9c6.9-7.8,14.2-15.1,21.8-22.2l0.5,0l0.5,0c0.7-0.4,1-1,1-1.8c4.2-3.9,8.9-7.4,12.2-12.2
	c0.2-0.2,0.5-0.5,0.7-0.7c0.8-0.8,1.5-1.5,2.3-2.3c0.2-0.2,0.5-0.5,0.7-0.7c2.5-1.9,5-3.7,7.1-6.1c1.4-1.5,2.9-3.9,5.8-3.3
	C461.4,642.1,461.1,643.2,460.9,644.2L460.9,644.2z M567.8,624.2c-1.5,0-2.5,0.6-2.6,2.1c0,0.3,0.6,0.8,1,0.8
	C568.1,627,566.9,625,567.8,624.2c0.2,0,0.3-0.1,0.4-0.2c0.1-0.1,0-0.2,0.1-0.3C568.1,623.9,568,624,567.8,624.2z M590.8,602.2
	L590.8,602.2c1.8,0.3,3.1-0.3,4-1.9c4.4-2.2,7.7-5.6,10-9.9c3.4-5.4,6.7-10.7,10.1-16.1c2.2-2.5,2.9-5.8,1.3-8.2
	c-1.7-2.4-4.8-0.3-7.3,0.2c-0.7-0.1-1.4-1.2-2.1,0.1c-1.7,2.4-0.8,5.7-2.8,8c-0.5,0-1-0.1-1.4-0.1c0-0.5,0.1-1,0.1-1.5
	c0-1.1,0.7-2.6-0.9-2.9c-1.4-0.3-1.8,1.1-2,2.3c-4.8,3.5-9.9,6-16,6.2c-1.6,1-3.8-2.5-5,0.8c-0.4,0.4-0.7,0.8-1.1,1.2
	c-1.1,0-2.3-0.1-3,1.1c-8.4,3-15,8.6-21,14.8c-3.4,1.5-1.2,4.7-2.2,7c-1.3,3,0.3,2.8,2.6,2.2c4.8-1.3,9.6-3.3,14.8-2.1
	c1.7,0.7,3.3,1.9,5,0c3.3-0.1,6.7,2.2,10-0.7c0.3-0.2,1.9,1,2.9,1.6c1.1-0.3,2.1,1.2,3.2,0.1C590.6,603.8,590.9,603.1,590.8,602.2z
	 M652.8,584.2c0-0.1-0.1-0.3-0.1-0.4c0-0.1-0.2-0.1-0.3-0.1C652.6,583.9,652.7,584.1,652.8,584.2c0.8,2.3,1.6,4.7,2.3,7
	C655.5,588.5,656.5,585.4,652.8,584.2z M212.8,603.2c4.5,0.1,8.7-1.4,13-2.6C221.2,600.2,216.8,600.5,212.8,603.2
	c-3.1,0-6.2-0.4-9.4,1.8C207.2,605.5,210.1,604.7,212.8,603.2z M575.5,622.1c1.5,0.2,2.3-0.5,2.2-2.1c0.4-1.1,1.9-2.1,0.2-3.5
	c-2.6,2-5.2,3.9-8,6C572.3,623.8,573.7,621.6,575.5,622.1z M599.9,620.2c4.1,2.5,4.6-2.1,6.7-3.4c2.9-1.8,2.2-3.5-0.8-4.6
	c-0.5-0.8-1.2-0.9-2.1-0.9c-2.2,0-4.3,0.1-6.5,0c-6-0.2-10,2.6-12.7,7.8c-0.7,1.3-1.3,2.6,0.8,3c4.7,1,9.7,4.1,13.4-1.9
	C599.1,620.2,599.5,620.2,599.9,620.2z M539,614.3c-4,1.3-7.9,2.8-11,6.9c2.4-0.4,4.1-0.7,5.8-0.9c3-0.4,6-0.8,9-1.1
	c4.2,0.2,7.9-2.3,12-2.6c0.3,0.2,0.5,0.5,0.8,0.7c-1.9,3.1-6.2,2.8-8,6c-1.2,0.1-1.8,0.7-1.8,1.9c-3.1,0.6-6.4-0.9-9.3,0.8
	c-10.2,5.8-20.7,11.1-29.3,19.3c-7.3,6.9-13.9,14.5-22.4,20c-4.1-1.4-10,2.3-13,8c-2.7,2-5.3,4-8,6.1c-0.7,0.5-1.4,0.9-2,1.4
	c-6.3,4.9-11.2,11.4-17.3,16.3c-6.1,4.9-12.5,9.3-16,16.6c-0.9,1.7-4.1,3-3,4.6c1.2,1.9,4.4,1.5,6.8,1.9c0.8,0.1,1.6-0.3,2.4-0.4
	c9.7-1.3,18-5.5,25.7-11.6c7.2-5.7,15.6-10,22.9-15.5c8.7-6.6,15.8-15.3,24-22.7c7.7-7,14.3-15,22.2-21.9
	c6.7-5.8,16.6-7.8,20.5-16.8c6.5-2.1,10.2-7.6,14.7-12.1c1.4,0,2.9,0.1,3-1.8c0.3,0,0.7-0.1,1-0.1c2,0.1,3.7-0.3,4-2.8
	c0.7-0.4,1.4-0.9,2.2-1.1c1.9-0.6,2.7-2.1,2.5-3.7c-0.3-2.1-2.4-1.2-3.7-1.3c-10.3-0.3-20.2,2.1-30,5
	C542.2,613.6,540.6,613.9,539,614.3z M478,484.2c0.5,0,1,0,1.5,0.1c4.5-0.4,8.9,0.7,13.2,1.9c1.3,0,2.7,0,4,0.1
	c1.4,1.7,3.4,0.8,5.1,1.1c1.4,1.1,3,2.5,4.8,1.3c2.3-1.6-0.4-3.6,0.1-5.4c0.7-0.7,1.4-1.4,2.1-2.1c4.7,0.3,8.2,4.4,13,4.2
	c1.4,0.4,2.8-1.9,4.1,0.1c-0.3,3,1.8,3.5,4.1,3.8c4,0.6,8,0.8,9.4,5.8c0.6,2.2,3,2.3,5,2.4c0.4,0,0.7,0.4,1,0.6
	c-0.1,2-2.6,0.5-2.8,2.4c2,1.2,4,1.1,6,0.3c0.7-0.3,1.9-0.5,1.6-1.5c-0.3-1.3-1.6-0.8-2.5-0.9l-0.1-0.1c0.3-2.7,2.6-1.6,4.1-2.1
	c1.7,0,3.4,0,5.1,0c-6-5.7-11.1-11.8-17.1-16.9c-3-2.2-4.9-6.9-9.9-4c-1.8-1.4-4-1.7-6.1-2.2c-0.6-0.3-1.2-0.6-1.9-0.8
	c-4.1-0.5-7.6-3.7-12.1-2.9c-8.7-3.9-17.9-3-27-2.9c-4.3,0.5-8.3,1.8-12,3.9c-5.7,2.5-7.2,7.8-9,13c-0.4,0.1-0.8,0.1-1.2,0.2
	c0.1,0.2,0.2,0.4,0.3,0.6c0.3-0.2,0.6-0.5,1-0.7c2.3,0.2,4.1-1.1,6-2c0,0.7,0,1.4,0,2.1c2.3,2.4,5.1,2,8,1.7
	C476.7,485.2,477.5,485,478,484.2z M600.8,545.1c-0.2-0.9,0.4-2.9-1.3-2.2c-1.2,0.5-0.9,2.2,0.2,3.2c-1.1,6.5,3.5,10.7,7.7,13.2
	c3.9,2.3,9.7,1.6,14.5-0.1c9.4-3.4,19.2-4.2,29-5.2c1.5,0.2,2.7,2.5,4.4,0.7c1.4-1.5,0.4-3.2-0.5-4.5c-1.2-1.9-2.7-3.7-4.2-5.5
	c-3.9-5.1-9.2-8.8-13.6-13.5c-6-6.3-13.3-10.6-21.1-14.1c-1.5-1.8-3.4-0.3-5.1-0.8c-6.7-5.6-14.6-3.3-22-2.7
	c-4.2,0.3-8.7-0.3-12.7,1.8c-1.5,0.8-2.7,1.8-2.4,3.4c0.3,2.1,2.1,0.8,3.2,0.9c1.7,0.1,3.4,0.1,5,0.2c1,0.1,2,0.2,2.9,0.3
	c2.5,1.3,5.2,1.5,7.9,2c6.3,1,13,1.2,18.1,5.9c0.3,0.3,0.5,0.6,0.8,0.9c0.4,0.6,0.8,1.3,1.3,1.9c-1.1,3.6-3.9,3.6-6.7,2.6
	c-1.8-0.7-3.7-2.7-4.8,0c-0.9,2-0.3,4.4,2.4,5.5c1.4,4,5.7,3,8.3,4.9c-0.9,0.4-1.2,1.2-1.2,2.1C607.4,546.9,604.2,545,600.8,545.1z
	 M562.4,546.7c5.4-5.9,11.8-10.3,19.5-12.8c1.4-0.5,3.4,0,1.9-2.4c-1.1-1.9-7.6-3.2-9.4-1.8c-2.4,1.8-4.4,4-7,5.4
	c-4.7,2.4-8.3,5-5.7,11.1c-4-0.5-8.6,4.1-6.6,6.9c3.5,5.2,7.6,9.9,10.9,15.3c1.3,2.1,3.3,0.6,4.9-0.2c1-0.5,2.3-1,2-2.5
	c-0.5-2.5-2.2-1-3.5-0.9c-0.4,0.1-1-0.1-1.4-0.3C563.2,561.5,560.1,551.5,562.4,546.7z M176.6,587.9c-3.8,1.4-3.4,4.1-1.7,6.8
	c1.2,1.9,2.6,4.1,4.5,5.2c3.2,2,7.3,5.2,10.1,4.4c6.2-1.7,12.3-4.4,18.7-6.1c-2.9,0.4-5.6-0.4-8.3-1c-2.7-0.6-5-2.8-8.1-2
	c-5.1-1.6-9.5-4.5-13.6-7.8C177.2,586.8,176.9,586.8,176.6,587.9z M567.8,513.2c0.5,1,1.3,2.5,2.3,2.2c1.7-0.6,1.7-2.5,1.7-4.1
	c2.5,0.5,5,1.4,7-1c2.5-0.3,5.2,0.4,8.1-1c-4.4-5.9-11-6.6-16.6-9.1c-6.5-2.9-11.7,1.7-17.5,3.2c-0.9,1.2-5.1-0.1-2.9,2.9
	c1.4,1.8,3.6,4.3,6.8,3.9c0.3,0.7,0.6,0.7,1,0C561.5,510.1,564.4,512.6,567.8,513.2z M347.9,620.3c2.9-0.7,6.4-0.6,8-5.1
	c-3.3,1.1-5.9,1.3-8,3c-1.7-0.1-3.2,0.7-4.7,1.3c-11.1,4.7-18.8,13.7-27.4,21.6c-2.1,0.1-3,1.9-4.4,3.1c-4.7,4.2-9.2,8.6-14,12.6
	c-9,7.6-18.2,14.9-26.7,23c-7.2,6.8-15.1,12.9-23.1,18.9c-2.2,1.7-4.9,2.3-7.9,2.7c-6.7,0.9-12.7-1.3-19.8-3.7
	c2.7,4.1,6.3,5.2,9.3,6.1c9.2,2.6,18.3,3.7,25.5-5c2-2.4,4.5-4.4,6.9-6.5c9.6-7.9,19.3-15.6,29.3-22.9c11.2-8.2,20.9-18.3,33-25.5
	c3.2-1.9,6.6-4.5,7.7-8.7c1.3-2,3.1-3.4,4.9-4.9C340.4,627.1,344.1,623.7,347.9,620.3z M528.8,494c-1.2-2.7-3.7-2.5-6-2.8
	c-2.5-0.9-4.9-1.9-7.4-2.8c-2.6-0.9-3.7,0.1-3.6,2.9c0.6,10.8,2.5,21,11.9,28.2c0.1,1.3,0.9,2.1,2.1,2.7c5,4.9,11.4,6.6,18,8
	c3,2.7,5.5,3.7,9.1,0.2c2.6-2.4,5.3-4.9,8-7.2c1.6-1.3,4.5-2.3,4.3-4.3c-0.3-2.3-3.6-2.3-5.5-3.6c-0.7-0.5-1.9-0.2-2.9-0.2
	c-6.2-1.4-11.6-4.3-15.9-9.1c-0.7-1-1.4-2-2.1-3C536.7,498.9,533.9,495.2,528.8,494z M576.8,543c-9.4,5.6-9.4,5.6-3.1,12.3
	c1.8,4.1,3.5,8.3,4,12.7c0.7,6.2,2,7.3,8.2,6c1.9-0.4,3.9-1,5.6-1.9c4.5-2.1,7.2-6.5,6.3-10c-0.5-7.5-4.1-13.8-8.4-19.6
	c-1.3-1.8-3.1-3.5-5.7-3.2C580.1,538,578.6,540.7,576.8,543z M316.8,545.2c-4.9-0.6-8,3.6-12.4,4.6c-6.5,1.6-12.5,4.7-18.3,7.6
	c-10.5,5.4-20.2,12.3-29.5,19.7c-1.4,1.1-3.6,2.2-3.3,5.6c10-9.1,21.5-14.3,32.4-20.4C296,556.5,307.2,552.4,316.8,545.2
	c0.1,0,0.3-0.1,0.4-0.2c0.1-0.1,0-0.2,0.1-0.3C317.1,544.9,317,545.1,316.8,545.2z M636.8,624.1c1.8,1.2,3.7,1.8,5.4,0
	c3.6-3.7,6.3-8,7.2-13.2c0.3-1.7-0.2-2.7-1.9-2.6c-7.5,0.6-14.9,1.6-21.8,4.8c-3-1-5.2,2.7-7.8,1.9c-6.4-2-7.8,2.3-9.9,7.4
	C618.2,619.8,627.6,621.6,636.8,624.1z M341.8,524.2c-2.5-0.7-5.1-0.5-7.2,0.4c-6.8,3-14.2,3.8-21.3,5.5c-3,0.7-6,1.1-8.5,2.9
	c-2.5,0.2-4.9,0.9-7.3,1.3c-7.7,1.5-15.5,0.5-23.3,1.5c-13.1,1.6-26,4.3-39.5,3.3c-6.5-0.5-13.6-1-19.9,2.1
	c-2.3,1.6-7.2,2.5-3.3,6.5c2.3,2.4,5.6,4.3,9.2,4.4c7.8,0.2,15.5,0.7,23.2,1.8c8.6,1.2,17.5,0.9,26.2,0.1c8.6-0.8,17.4-1.8,25.3-6.5
	c2.8-1.6,3.9-3.3,3.4-6.2c3.6-0.1,7.3-0.2,10.9-0.2c6.5-3.4,12.8-7,20-9.1c4.5-1.3,9.1-3.6,12.1-7.7c0.7-0.2,1.5-0.3,2.2-0.5
	c-0.1-0.1-0.2-0.3-0.3-0.4C342.9,523.2,342.3,523.4,341.8,524.2z M210,555.1c-0.9-3-2.5-2-4-0.6c-1.4,1.3-2.7,2.4-0.9,4.5
	c3.2,3.8,11,5.1,15.8,2.3c12.4-1.7,24.4,2.4,36.7,2.7c5.7,0.1,11.6,0.2,16-5.8c-10.3,0-20.4,1.6-29.7-0.4
	C232.5,555.3,221.1,557,210,555.1z M508.7,506.2c0.9-3.5-1-6.7-0.9-10.1c0-2.5-2-0.6-2.9-1.1c-2.1-2-4.7-3.3-7.5-3.5
	c-10.6-0.8-20.9-4.2-31.6-3.2c-1.6,0.1-4.2-1.3-4.5,1.3c-0.2,1.9,2.3,2.7,3.9,3.3c6.9,2.5,13.8,4.9,20.8,7.3
	c1.1,0.7,0.8-0.4,0.9-0.8c1.6-0.5,2.7,0.4,4.1,1c7.1,3.4,13.2,8.4,20,12.4C511.6,510.2,508.4,508.8,508.7,506.2z M232.8,647.2
	c2.6,0.3,4.6-0.7,6.9-2c5.8-3.4,10.3-8.3,15.4-12.4c6.6-5.2,14.2-9.3,19.4-16.1c5.6-7.3,13.6-12,19.8-18.6c6-6.3,14.3-9.6,21.7-14.1
	c1.2-0.7,3.3-1.5,2.2-3.2c-0.9-1.4-2.5,0-3.6,0.5c-6,3.1-11.4,7.4-17,11.1c-13.3,8.8-25.5,18.7-36.7,29.9c-3.7,3.7-7,7.7-11.7,10.6
	C243.2,636.8,238.2,642.4,232.8,647.2c-0.1,0.1-0.2,0.1-0.3,0.2c-0.1,0,0,0.2-0.1,0.3C232.5,647.5,232.7,647.4,232.8,647.2z
	 M199.7,574c-6.3,0.8-12,2.5-14.9,9c-0.8,1.8-1.1,3,0.9,4.1c3.7,2.1,7.8,3.7,11.7,3.5c10.1-0.5,20.1-0.2,30.1-0.7
	c4.2-0.2,9.7,0.5,11.5-5.6c3-1.8,6-3.4,8.9-5.3c1.7-1.1,3.3-2.9,2.8-4.6c-0.5-1.4-2.7-2.2-4.7-2.2c-3.8,0.1-7.5-1.2-11.3,0
	c-2.9,0.9-5.1-2.6-7.9-1.3c-5.3,2.5-10.8,1.7-16,0.9C206.6,571.2,203.1,571.8,199.7,574z M607.8,593.1c-3.5,3.1-5.8,7.2-9.7,9.9
	c-0.8,0.5-2.2,2.9,0,2.9c3.9,0.1,6.8,2.8,10.2,3.1c14.2,1.3,27.9-1.8,41.6-4.8c1.6-0.4,3-1.2,2.8-2.9c-1-7.4-2-14.8-7.9-20.2
	c-1.1-5.3-3.7-2.3-6-1c-1.5,0.2-2.9,0-4.3,0.9c-7.7,4.7-15.5,9.2-24.7,10.2C608.6,591.2,607.9,591.8,607.8,593.1z M223.9,607.5
	c-0.2-0.4-0.5-0.7-0.7-1.1c-8.9,3-17.7,6-26.6,8.9c-3.1,1-5.6,2.8-8,4.8c-1.9,1.6-2.7,3.8-1,5.6c2.6,2.7,9.9,3,13.4,1.1
	c3.2-1.7,6.3-3.8,9.8-4.9C218.2,619.5,219.3,612.1,223.9,607.5z M580.4,523.7c-3.1-2.2-6.8-2.3-9.7-0.9c-7.8,3.8-14.9,8.8-21,15.1
	c-2,2.1-2.3,4.3-1.1,6.8c0.6,1.3,1,3.4,2.7,2.8c1.2-0.5,2.7-2.5,1.9-4.1c-1.5-2.8,0.7-3.6,2.1-4.8c1.7-1.5,3.4-3.1,5.2-4.5
	C566.5,529.5,571.7,523.4,580.4,523.7z M193,645.2c2.2-0.2,4.8-0.4,5.5-2.7c0.8-2.7-2.1-2.5-3.6-3c-2.2-0.7-2.9-2.6-4.3-4
	c-3.5-3.3-9.4-2.6-11.8,1.5c-1.3,2.3-1.5,4.1,1.7,5.4C184.6,644,188.9,644.2,193,645.2z M175,634.8c4.6-4.9,4.1-11.7,7.6-16.8
	c0.4-0.6,0.3-2.3-0.2-2.8c-1-0.9-2.1,0.2-3,0.9C174.6,620.4,170.4,626.1,175,634.8z M595.2,542.9c-0.3-4.7-1.9-8.7-6.4-11.5
	C587.3,537.7,593.3,539.1,595.2,542.9z M320.4,579c11-5.5,5.9,3.9,8.4,7.3c1.5-3.8,4.8-7.1,1.9-10C328,573.5,324.4,575.5,320.4,579z
	 M285,686.3c0.3,0.4,0.7,0.7,1,1.1c4.3-3.7,8.5-7.4,12.8-11.2c0.5-0.4,1.1-1,0.4-1.5c-0.4-0.3-1.5-0.4-1.8-0.2
	C293.2,678.4,288.2,681.4,285,686.3z M656.2,512.8c-3.6-2.6-5.8-5.8-11.1-6.7C648.8,509.4,650.9,512.7,656.2,512.8z M488.9,460.1
	c-4.4-0.6-8.1,0.9-11.2,4.2C481.5,462.8,485.2,461.5,488.9,460.1z M362.2,619.8c1.5-0.6,1.6-1.9,1.9-3.2c0.3-1.3-0.6-1.3-1.4-1.1
	c-1.5,0.5-1.8,1.7-1.7,3.1C361,619.4,361.4,619.8,362.2,619.8z M281.1,691.8c1.5-0.8,2.9-1.2,3.3-2.7c0-0.1-0.7-0.7-1-0.7
	C281.7,688.4,280.8,689.4,281.1,691.8z M301,674.5c2.1-1.2,3.7-1.8,3.3-4.1C302.4,670.9,301.2,671.7,301,674.5z M554.6,468.6
	c-0.3,0.9-0.5,1.3-0.6,1.8c-0.1,0.7,0,1.4,0.8,1.5c0.6,0.1,1.5,0.4,1.3-0.7C556,470.6,555.5,470.1,554.6,468.6z M422.4,714.9
	c-0.3-0.1-0.6-0.2-0.8-0.4c-0.1,0.3-0.4,0.6-0.3,0.8c0.1,0.2,0.5,0.3,0.8,0.4C422.2,715.5,422.3,715.2,422.4,714.9z M507.9,456.5
	c-0.6-0.1-1-0.2-1.5-0.2c-0.3,0-1.2,0-0.5,0.7c0.3,0.2,0.9,0.1,1.4,0.1C507.6,457.1,507.7,456.8,507.9,456.5z M548.5,465
	c-0.3-0.1-0.6-0.4-0.8-0.3c-0.2,0.1-0.3,0.5-0.4,0.8c0.3,0.1,0.6,0.4,0.8,0.3C548.3,465.7,548.3,465.2,548.5,465z M524.4,530
	c-0.3-0.1-0.6-0.4-0.8-0.3c-0.2,0.1-0.3,0.5-0.4,0.8c0.3,0.1,0.6,0.4,0.8,0.3C524.3,530.7,524.3,530.2,524.4,530z M567.2,574.8
	c-0.3-0.1-0.5-0.2-0.7-0.2c0,0.1,0.1,0.2,0.1,0.4C566.8,574.9,566.9,574.9,567.2,574.8z M261.2,640.9c0,0.1-0.1,0.3-0.1,0.4
	c0,0,0.2,0.1,0.3,0.1c0-0.1,0.1-0.3,0.1-0.4C261.5,641,261.3,641,261.2,640.9z M259.6,643.2c-0.1-0.1-0.1-0.3-0.2-0.4
	c-0.1,0.1-0.3,0.2-0.3,0.3c0,0.1,0.1,0.3,0.2,0.4C259.4,643.5,259.5,643.4,259.6,643.2z M314.1,661.9c-0.1,0.1-0.2,0.3-0.2,0.4
	c0.1,0.5,0.4,0.5,0.6,0c0.1-0.1,0-0.3-0.1-0.4C314.4,661.8,314.2,661.9,314.1,661.9z"/>
<path class="st2" d="M515.8,450.2c-0.7,1-1.3,1-2,0C514.5,450.2,515.1,450.2,515.8,450.2z"/>
<path class="st2" d="M539.8,458.2c-4.1-0.4-8.1-0.9-11.6-3.5c-1.9-1.4-4.3-1.7-6.6-1.6c-1.6,0.1-3.5,0.4-3.7-2.1
	c7.7,0.4,15.4,1.2,22.3,5.1C540,456.9,539.9,457.5,539.8,458.2C539.8,458.2,539.8,458.2,539.8,458.2z"/>
<path class="st2" d="M668.1,514.1c-3.1,1.7-4.9-0.8-6.8-2.2c-2.7-1.9-6-3.2-7.6-6.5C659.8,506.2,663.8,510.4,668.1,514.1z"/>
<path class="st2" d="M561.8,474.2c0-1.4,0-2.8,0.1-4.2c2.8,2.1,5.6,4.2,8.4,6.3c-2.6,2.3-4.2-2-6.6-1.1
	C563.1,474.9,562.5,474.5,561.8,474.2z"/>
<path class="st2" d="M651.7,504.2c-2.5,1-4.4-3.1-7-0.9c-0.6-0.4-1.3-0.8-1.9-1.2c0-1.1,0.1-2.2,0.1-3.2
	C646.2,500.2,649.7,501,651.7,504.2z"/>
<path class="st2" d="M602.8,486.3c-2,3.3-5,2.7-8-1.6C597.7,484,600.3,485.1,602.8,486.3z"/>
<path class="st2" d="M618.8,493.3c0-1,0-2,0-3c2.2-0.2,4.1,1.1,6,1.9c-0.3,1-0.7,2-1,3c-0.7-0.3-1.3-0.7-2-1c-0.3-0.6-0.6-0.7-1-0.1
	C620,494.2,619.3,494,618.8,493.3z"/>
<path class="st2" d="M575.7,480.9c-3.4,0.7-6.1,0.5-4.9-4.2C572.5,477.9,574.6,478.8,575.7,480.9z"/>
<path class="st2" d="M688.4,550.2c-3.3-2.8-3.6-4-1.8-6C687.2,546.2,687.8,548.2,688.4,550.2z"/>
<path class="st2" d="M585.8,485.2c-0.1,0.8-0.1,1.8-1.2,1.6c-1.3-0.2-1.7-1.3-1.8-2.5C584,483.9,584.9,484.5,585.8,485.2z"/>
<path class="st2" d="M663.8,580.2c1.5-1.5,2.5-1.2,3,0.8C665.7,581.2,664.7,581,663.8,580.2z"/>
<path class="st2" d="M628.8,626.3c1.6-1.8,2.6-1.3,3.1,0.9C630.7,627.1,629.6,627.4,628.8,626.3z"/>
<path class="st2" d="M655.8,622.3c0-1.3-0.3-2.7,1.5-3.1C658.1,620.8,656.9,621.5,655.8,622.3z"/>
<path class="st2" d="M558.8,467.2c-1.4,0-2.9,0-3-2C557.1,465.5,558.2,465.9,558.8,467.2z"/>
<path class="st2" d="M555.8,465.2c-1.6,0-3-0.2-2.8-2.3C553.9,463.7,554.8,464.5,555.8,465.2z"/>
<path class="st2" d="M672.8,580.3c0.1-2.2,1.6-2.1,3.2-2C675.3,579.5,674.3,580.3,672.8,580.3z"/>
<path class="st2" d="M680,529.1c-2.4,0-2.2-1.7-2.1-3.3C679,526.7,679.8,527.8,680,529.1z"/>
<path class="st2" d="M661.4,598.2c-0.7-0.1-1.4-0.2-1.3-1.1c0-0.3,0.6-0.6,0.9-0.9C662.1,596.7,661.7,597.5,661.4,598.2z"/>
<path class="st2" d="M485.8,455.9c-2.7,2.3-3.9,2.6-5,1.3C482.3,456.1,484,455.7,485.8,455.9z"/>
<path class="st2" d="M500.8,451.7c-0.8,1.9-1.8,1.9-3,0.4C498.8,452,499.8,451.9,500.8,451.7z"/>
<path class="st3" d="M235.8,695.2c-1.5,0-3,0-4.5,0c-3.1-0.1-7,0.2-8.2-3.1c-1.2-3.4-0.9-7.3,2.5-10c0.9,0,1.6-0.3,2.2-0.9
	c9.3-10.1,20.7-18,30.9-27.2c6.4-5.9,14.3-9.9,21-15.4c3.1-2.6,6.6-4.9,9.7-7.5c10.5-9.1,18.6-20.6,29.8-29.1c2.5-1.9,7-3.2,6.6-7.9
	c4.3-3.3,8.1-6.8,10.5-12.1c1.9-4.3,0.6-6.9-1.8-9.8c-2.3-2.7-5.3-2.2-8.3-1.2c-10.8,3.6-20.9,8.5-30.7,14.1
	c-11.6,6.7-20.3,17.1-30.9,25c-6.3,4.6-12.7,9.4-17.6,15.4c-5.4,6.6-12.1,11.1-18.9,15.8c-2.8,1.9-5.8,3.3-9.3,2.8
	c0.2-1,0.7-1.9,0.7-2.9c0-7.7,1.5-14.9,5.6-21.5c1.4-2.2,2.9-4.4,4.6-6.4c1.3-1.6,0.5-1.9-0.9-2.2c-0.5-6.5,4.5-8.1,9-10.1
	c0.8,3.8-3.2,4.9-4.2,7.9c5.5-3.4,10.9-6.9,15.6-11.3c4-3.7,8.3-7,12.8-10c10.4-7,20.9-13.9,31.8-20c1.7-0.9,3.6-2,3-4.6
	c2.2-2.5,5.4-3.2,8.1-4.7c0.1,2.5-0.9,5.9,3.9,4.5c8.2-2.5,16.1-1.7,24,2c3.3,1.5,7,2.6,11,4.2c-0.9-4-6.1-3-5.8-7
	c2.4,0.1,3.9,2.3,6.5,2.9c0.4-2.1-2.4-4,0.1-6.1c1.9-1.5,0.5-2.3-1.5-2.8c-6.4-1.7-12.8-3-20.8-3.1c7.3-6.1,10.1-15.6,20.6-14.8
	c0.2,4.1,2.8,5.8,6.4,6c4.6,0.2,9.3,0.1,14,0.1c2.8,0,2.6-1.9,2.6-3.8c1.4-1.4,0.3-1.6-0.8-2.4c-6.5-4.9-5.9-9.3,1.6-12.3
	c2.8-1.1,5.2-3.1,8.2-3.5c-1,2.8-0.7,4.4,2.9,4c1.5-0.2,3-0.3,4.3-1.2c2.8-1.8,5.4-2.1,8.1,0.3c1.5,1.3,4,1.5,5,0.1
	c2.1-2.9,4.2-1.6,6.5-0.9c2.5,0.8,5.1,1.5,7.6,2.2c2.6,0.7,4.2-0.1,4.6-2.9c3.3,0.9,6.5,1.9,10.2,1.3c-4,0.7-5.3-4.6-9.3-3.9
	c-1.8,0-3.1-1-4.5-1.9c-2.1-1.3-2.6-3.6-2.9-5.4c-0.2-1.6,2.4-1.9,3.9-2.6c1.2-0.6,2.5-1,3.8-1.3c7.3-1.5,14.4-3.4,21-7.2
	c1.1-0.6,2.5-0.7,3.8-1c3.9,2,8.1,2.1,12.3,2.1c2.5,0,5-0.2,6.8,2c-4.5,3.4-10.3,4.3-15.1,8.1c3.8,2.1,6.9-0.6,10-0.2
	c2.1,2.1,3.5,0.1,5-1c1-0.1,2-0.1,3.1-0.2c0.1,0.4,0.2,0.8,0.3,1.2c-0.1,5.6-5.9,6.4-8.3,10c-2.5-0.4-2.4,1.1-2.1,2.8
	c-0.3,0.1-0.6,0.2-0.9,0.2c-1.2,1.3-2.9,2.8-1.2,4.5c1.4,1.3,3,0,4.3-1c1-0.8,2.4-1.1,2.7-2.6c0.3,0,0.7,0,1-0.1
	c0.4,0.6,1.1,1.2,1.6,0.8c8.5-7.4,19.2-11.1,28.7-16.7c2.2,3-0.2,3.5-2.3,4.2c-3.7,1.3-7.3,2.5-9.8,5.8c-2,2.9-7.3,1.1-8.7,6.4
	c7-2.2,13.8-1.5,20.2-4.1c3.4-1.4,7-5.3,11.5-2.2c-0.2,0.7-0.8,1.9-0.6,2.1c1.1,1.1,2.3-0.5,3.5-0.2c2.3,0.4,4.7,0.8,7,1.1
	c0.3,1.7-2.8,2.2-1.3,4.7c3.3,5.8,5.3,12,2.1,18.7c-0.3,0.6-0.5,1.2-0.7,1.9c-0.2,0.8-0.1,1.7,0.7,2.2c0.8,0.5,1.6,0.2,2.1-0.6
	c2.2-3.9,5.6-6.2,9.8-7.5c2-0.6,3-4.7,5.5-2.8c1.4,1.1-1.9,3-1.8,5c0,0.3,0.3,0.6,0.5,1c2-0.3,2.8-2.9,5-2.8c0.7,1.1,1.5,1,2.2,0.1
	c2-1.9,4-2.2,5.9,0.1c-2.1,5.2-6.3,8.3-11.1,10.7c0.2-2.3-0.4-3.1-2.8-1.9c-4.2,2.1-6.6,5.8-8.7,9.7c-1.1,2.1-0.1,3.5,2.5,3.2
	c1.3,3.7,0.8,7.3-1.4,10.7c5.3-1.9,8.1-5.8,9.4-10.9c0.4-1.4,0.3-3.6,2.1-3.2c1.9,0.5,4.5-0.5,5.8,1.9c2.4,4.2,5,8.2,7.1,12.5
	c1,2.1,2.3,4.4,1.6,7.1c-1.5,5.7-7.6,9-14,7c-8.3-2.7-16.6-2.4-25-0.6c-2,0.4-5.4,0.6-4.2,4.1c1.5,4.6-1.3,6.2-4.3,8.7
	c-3.8,3.3-11.6,3.1-10.6,11.1c0.1,0.5-1.5,1.2-2.3,1.6c-5.9,3.1-11.2,7.1-16.5,11.1c-1.7,1.3-4.1,2.7-4.2,5.8
	c2.1-0.3,3.9-0.5,5.7-0.8c-1.5,3-6.4,3.4-6.2,7.9l-0.1,0c-2.8-0.5-4.3,1.8-5.8,3.3c-2.2,2.3-4.7,4.2-7.1,6c-0.2,0.2-0.5,0.5-0.7,0.7
	c-0.8,0.8-1.5,1.5-2.3,2.3c-0.2,0.2-0.5,0.5-0.7,0.7c-3.3,4.9-8,8.3-12.2,12.2c-0.8,0.3-0.9,1.1-1,1.8l-0.5,0c0,0-0.5,0-0.5,0
	c-1.9-2-3.5-0.6-5.2,0.5c-7.7,4.8-13.4,11.9-20.5,17.2c-4,3-7.5,6.6-10.1,10.9c-6.6,10.9-14.7,20.6-22.7,30.5
	c-2.2,2.8-1.7,3.7,1.6,3.8c-2.9,4.2-6.9,7.3-10.5,10.8c-5.2,5.2-12.2,4.4-18.4,6c-3,0.8-5.4-1-5-4.4c1.3-9.4,4.1-18,12.7-23.5
	c7-1.2,11.3-6.6,15.5-11.3c2.4-2.7,6.3-4.6,6.6-9c11.9-9.2,20.8-21.2,30.1-32.8c4.3-5.3,8.6-11.4,9-18.9c1.9,0.2,3.6-0.1,5.2-1.1
	c1.3-0.8,2.4-0.7,3.5,0.4c2.8,2.7,5.9,3.8,9.8,2.8c1.6-0.4,3.5,0.5,5.2,1c1.6,0.4,2.8,2.5,4.9,1c2.1-1.6-0.4-3.3,0.2-5
	c4.1-2.2,1.8-5.9,1.7-8.8c-0.1-2.4-3.1-3.5-5-5c-0.7-0.5-1.5,0.1-1.3,1.3c0.8,3.5-1.3,1.8-2.6,1.5c-4.1-1-7.8-3.4-12.3-3.2
	c-3.1,0.1-3.7,1.4-3.2,4c-4.1-0.6-4.7,3.8-7.4,5.2c-3.5-2.2-6.8-1-9.8,1c-3.1,2-6.5,3.1-10.1,3.9c-0.4-2.5-2.4-2.1-3.9-1.9
	c-8.1,1.4-16.4,1.3-24.3,4.9c-15.3,6.9-27.1,18.2-39.2,29.2c-2.3,2.1-3.4,5.5-6.2,7.4c-0.5,0.3,0.1,1.2,0.7,1.6
	c-1.9,4.3-6.6,5.7-9.6,9c-4.3,4.7-9.3,8.6-13.7,13.3c-6.1,6.5-14.1,10.8-23.5,11.3c-1.6,0.1-3.5,0.9-4.7-0.5c-1.2-1.5-0.8-3.5,0-5.2
	c2.5-5.3,6.1-9.9,10.1-14.1c13.1-13.8,27.8-25.6,42.9-37c6.1-4.6,11.8-9.6,16.6-16c5.1-6.9,13.1-11.4,20.6-16
	c6-1.1,9.3-5.9,13.4-9.6c1.3-1.1,1.6-4,4.5-2.6c2.2,1,3.8,2.2,4.3,4.8c0.7,4,3,5.2,6.7,3.2c2-1.1,4.1-2.1,6.5-0.7
	c1.9,1.1,4.3,1.8,5.9-0.1c1.8-2.3-3-1.7-2.2-4c3.4,0.5,6.6,3.2,10.4,1.4c-0.3-1.7-1.7-2.4-2.7-2.8c-5.7-2.3-11.3-4.6-15.3-9.7
	c-0.8-1-3.9-3.3-5.6,0.2c-2.3,0.1-4.5-0.2-6.6-1.4c-2.6-1.4-5.5-1.9-8.4-0.6c-7.3-2.3-14.6-0.1-21.8,0.6c-1,0.1-1.9,0.4-2.9,0.6
	c-1-1.5-2.2-0.9-3.5-0.5c-3.8,1.2-7.4,3-10.6,5.4c-21.6,15.5-42,32.4-60.3,51.8c-1.1,1.2-2.9,2.6,0.4,3.3
	c-8.5,5.7-14.9,14.1-24,19.1C244.4,688.4,238.2,690.6,235.8,695.2z M429.8,554.2c-1.1,3.3-2.1,6.6-4,9.5c-0.9,1.3-1.8,3.3,0.6,3.2
	c2.8-0.1,5.9,0.6,7.9-3.2c2.7-5.2,5.1-10.8,10.5-14.4c2.3-1.6,1.1-5.9,2.5-8.8c0.7-1.4-1.5-1.1-2.5-1.3c-2.5-2.1-5-1-6.3,1.1
	C435.7,545,429.1,547.4,429.8,554.2z M349.2,607.1c5-0.7,9.5-1.3,13.9-1.9c1.4-0.2,2.6-0.9,3.1-2.2c0.9-2.2-1.5-1.6-2.3-2.4
	c-1.6-1.7-3.7-2.8-5.8-3.8c-1.3-0.6-3.3-0.9-3.5,0.4c-0.4,4.1-4,4.8-6.3,6.9c-0.6,0.5-1.4,1.1-1.1,2.1
	C347.7,607.6,348.9,607.1,349.2,607.1z M429.6,621.4c-1.9,0.3-3.3,0.5-4.8,0.8c-1.6,0.3-4.3-1-4.7,1.4c-0.4,2.7,2.7,2.6,4.5,3.7
	c4.7,2.7,10-1.2,14.9,1.7c1.8,1.1,1.8-0.8,1.1-2.7C438.5,620.5,432.9,623.3,429.6,621.4z M359.4,587.2c0.6-4.6-0.4-7.9-2.6-11
	c-0.6-0.8-1.1-2-2.3-1.4c-1.1,0.5-0.8,1.8-0.7,2.7C354.4,581.1,355.5,584.5,359.4,587.2z"/>
<path class="st3" d="M428.9,677.2c2.6-2.3,5.3-4.7,7.9-7c0.9,3.1,2.2,2.1,3.7,0.4c2.6-2.8,5.4-5.5,8-8.3
	c6.1-6.7,14.8-10.4,20.4-17.7c0.9-1.1,2.5-1.7,3.4-2.8c3.3-3.8,8.6-5.9,9.4-11.6c18.8-12.4,37.3-25.3,61.3-25.4
	c-4.6,2.6-7.7,7.4-13.3,8.5c-2.6-0.6-3.5,1.6-5.1,2.9c-2.7,1.2-3.5,4.4-5.8,6.1c-0.8,0.1-1.9-0.2-2.4,0.2
	c-7.7,5.9-16.8,9.8-24.1,16.3c-2.2,1.9-2.9,3.8-2.6,6.4c-6.8,7.5-15,13.4-22.3,20.3c-6.9,6.6-12.6,14.1-19.6,20.6
	c-1.6,1.4-3.5,2.5-4.8,4.2c-2-0.4-3.3,0.8-4.9,1.8c-6.6,4.3-11.6,10.9-19.7,13.1c-2.3,0.6-5.1-0.2-6.9,2.6
	c-5.4,8.4-13.2,14.8-18.8,23.1c-4.6,6.9-8.2,14.8-16,19.1c-0.9,0.5-1,1.7-0.9,2.7c-6.2,3.5-12.8,6.4-19.9,7.3c-5,0.6-9.4-2.3-14-4.5
	c1.1-1.9,2.6-2.6,4.3-2c6.5,2,12-0.6,17.6-3.3c13-6.3,21.5-17.4,29.6-28.8c4.6-6.3,10-11.9,15-17.8c1.5-1.8,2.9-3.5,4.2-5.4
	c1.4-0.6,2.4-1.5,2.8-3c1.7-4.7,6.2-7.4,8.3-11.8c1.3-0.2,2.4-0.8,2.9-2.2c0.3-0.4,0.7-0.7,1-1.1C429,679.5,428.8,678.3,428.9,677.2
	z"/>
<path class="st3" d="M564.8,619.2c-4.5,4.5-8.2,10-14.7,12.1c-4,9-13.8,10.9-20.5,16.8c-7.9,6.9-14.5,14.9-22.2,21.9
	c-8.2,7.4-15.3,16.1-24,22.7c-7.2,5.5-15.7,9.8-22.9,15.5c-7.7,6.1-16,10.3-25.7,11.6c-0.8,0.1-1.7,0.5-2.4,0.4
	c-2.4-0.3-5.6,0-6.8-1.9c-1.1-1.6,2.1-2.9,3-4.6c3.6-7.3,9.9-11.7,16-16.6c6.1-4.9,11-11.4,17.3-16.3c0.6-0.5,1.3-1,2-1.4
	c1.7,2.7,3.8,4.9,7.3,3.7c3.1-1.1,6.5-2.2,9.1-3.6c5.5-2.9,11.4-5.8,16.3-9.7c7.8-6.2,14.9-12.9,21-21.2
	c6.3-8.5,15.1-15.1,26.1-17.7c2.2-0.5,3.9-1.9,5.3-3.5c1.4-1.5,0-1.9-1.3-2.2c0-0.6,0-1.3,0-1.9c1.8-3.2,6.2-2.9,8-6
	c0.1-0.3,0.1-0.6,0-0.9c4.6-1.9,9.3-2.5,14.2-1.1c-0.3,0.7-0.7,1.3-1,2c-0.3,0-0.7,0.1-1,0.1C566.3,617.1,565.4,617.9,564.8,619.2z"
	/>
<path class="st4" d="M527.7,556.1c4.8-2.4,9-5.5,11.1-10.7c3.7-0.9,5.7,0.9,7.2,4.2c3.7,8.2,6.9,16.7,12.9,23.6c0.3,3.7,3.6,3,5.9,4
	c2.8,1.4,3.1,2.7,0,4.1c-1.5-5.2-3.3-0.5-5-0.2c-6,4.5-12.5,8.5-16.2,15.5c-1,1.9-2.7,1.6-4.4,1.6c-2.2,0.1-4.3,0.2-6.5,0.2
	c-1.1-0.3-2.1-0.2-2.9,0.8c-6.2,0.4-11.1,4.1-16.3,6.8c-5.3,2.7-10.5,5.6-16,7.7c-7.2,2.8-12.6,8.1-18.7,12.4
	c-4.3,0.5-8.2,1.6-9.9,6.1c-0.3,0.3-0.6,0.6-1,0.9c-1.8,0.2-3.5,0.5-5.7,0.8c0.1-3.1,2.5-4.5,4.2-5.8c5.2-4,10.6-8,16.5-11.1
	c0.9-0.5,2.4-1.2,2.3-1.6c-0.9-8,6.8-7.8,10.6-11.1c3-2.6,5.8-4.1,4.3-8.7c-1.1-3.6,2.2-3.7,4.2-4.1c8.3-1.8,16.7-2.1,25,0.6
	c6.4,2,12.5-1.3,14-7c0.7-2.7-0.5-5-1.6-7.1c-2.1-4.3-4.7-8.3-7.1-12.5c-1.4-2.4-3.9-1.4-5.8-1.9c-1.9-0.4-1.8,1.7-2.1,3.2
	c-1.3,5.1-4.1,9-9.4,10.9c2.2-3.5,2.7-7,1.4-10.7c0-0.2,0-0.5,0.1-0.7c0-0.3,0-0.7,0.1-1l0,0c1.3-0.1,1.9-0.7,2-2c0.4-1,1-1.6,2-2
	C526.3,561.3,527.1,558.8,527.7,556.1L527.7,556.1z"/>
<path class="st3" d="M394.8,654.2c-0.5,1.7-2.1,2-3.4,2.8c-0.7,0.5-1.7,0.9-1.4,1.8c0.4,1.5,2.6,2.7,0.3,4.5
	c-3.2,2.5-5.2,6.8-9.7,7.4c-11.8,1.7-20.5,8.9-29.5,15.7c-9.6,7.2-17.9,15.8-26.8,23.7c-11,9.8-21.9,19.7-36.1,25
	c-4.2,1.6-8.5,1.3-12.8,1.1c-2-0.1-4.5-0.4-4.3-3c0.2-2.4,0.7-5.2,3.7-5.9c2.6-0.6,5.2-0.8,7.8-1.2c3,0.2,5.8,0.1,8.6-1.6
	c12.7-7.8,24.3-17,35.5-26.7c4.3-3.7,8.9-7.5,9.1-14c2-4,5.4-6.6,8.9-8.9c13.3-8.5,28.5-13.1,42.6-19.7
	C389.4,654.1,392.3,654.5,394.8,654.2L394.8,654.2z"/>
<path class="st3" d="M660.8,547.2c-0.3-1-0.7-2-1-3c-0.3-0.4-0.7-0.7-1-1.1c-2.4-2.9-4.5-6.2-8-7.9c-0.7-1.3-1.6-2.3-2.9-2.9
	c-0.3-0.1-0.6-0.2-0.9-0.2c-1-3.2-3.7-5-6.1-7c0,0,0,0,0,0c-1.3-2-3-3.6-5-5.1c-2.7-1.6-4.5-4.7-8.1-4.8c-1.8-2.3-4.4-2.1-7-2.1
	c-0.1-0.1-0.2-0.2-0.4-0.3c0.1,0.1,0.3,0.1,0.4,0.2c0,0.3,0,0.7,0,1c-4-1.3-8-2.7-12-4c1.4-0.3,2.9,0.5,4.5-0.6
	c-3.9-4-8.7-3.5-13.4-3.3c-2.4-0.2-5.7,0.4-6.7-2c-2-4.5-7.3-2-9.7-5.6c-1.5-2.2-4.9-1.2-7.5-1.4c-2.5-0.2-4.6-0.8-6.2-2.7
	c0.4-2.6,5-2,4.2-5.5c7.8,1.8,15.6,3.5,23.3,5.3c1.2,0.3,2.4,0.8,3.1-0.4c2-3.2,3.8-1.3,5.6,0.1c-1.8,2.7,1.1,2.4,2.1,3.1
	c4.6,3.2,10.5,5.2,13.5,9.4c4.3,5.8,8.9,6.9,14.9,5.1c2.2-0.6,3.6,0,5.6,0.9c6.4,3,9.7,9.7,15.7,12.9c5.4,2.9,8.5,7.5,11.3,12.7
	c1.7,3.1,3.1,6.5,5.9,9c-0.1,0.3-0.1,0.6-0.1,0.9c-4.4,0.4-7.7,3.9-12.1,4.1C662.9,550.3,662.3,548.6,660.8,547.2z"/>
<path class="st3" d="M644.8,581.1c5.9,5.5,6.9,12.9,7.9,20.2c0.2,1.8-1.1,2.6-2.8,2.9c-13.7,2.9-27.4,6.1-41.6,4.8
	c-3.5-0.3-6.3-3.1-10.2-3.1c-2.2,0-0.8-2.3,0-2.9c3.9-2.7,6.2-6.9,9.7-9.9c1.3,0.1,1.9-0.6,2-1.9c9.2-1,17-5.5,24.7-10.2
	c1.4-0.8,2.9-0.7,4.3-0.9C640.6,582.1,642.8,580.9,644.8,581.1z"/>
<path class="st3" d="M650.8,554.1c-9.8,1-19.6,1.8-29,5.2c-4.8,1.7-10.5,2.5-14.5,0.1c-4.2-2.5-8.8-6.7-7.7-13.2c0.3,0,0.6,0,0.9,0
	c2.9,1.5,4.5,4.8,7.7,5.8c1.7,0.5,2.9,3.2,5.2,1.7c2.3-1.5-0.3-3.6,0.3-5.4c1.4,0.3,2.7,1.7,4.4,0.3c-1.3-1.8-3.6-2.2-4.5-4.3
	c3.6,0.1,4-2.3,4.1-5c2.7,0.5,5,1.7,7,3.5c0.8,0.8,1.5,1.2,2.4,0c0.4-0.6,1.5-1,0.5-1.9c-4.4-4-7.9-9.5-14.7-9.7
	c-0.4-0.6-0.8-1.3-1.3-1.9c-0.3-0.3-0.5-0.6-0.8-0.9c-5.2-4.7-11.8-4.9-18.1-5.9c-2.7-0.4-5.4-0.7-7.9-2c2-2.6,4.9,1.6,6.7-0.9
	c2.3-3.2,5.1-1.8,8-1.6c3.7,0.3,7.9,2,11.2-1.4c1.7,0.4,3.6-1,5.1,0.8c-3.4,2.7-0.5,4.2,1.3,5.6c5.3,3.8,12.1,5.6,16.1,11.3
	c4.2,6,10,10.7,15,16C649.3,551.2,650.8,552.2,650.8,554.1z"/>
<path class="st4" d="M547.7,625.1c1.3,0.3,2.6,0.7,1.3,2.2c-1.4,1.6-3.1,3-5.3,3.5c-10.9,2.6-19.8,9.2-26.1,17.7
	c-6.1,8.2-13.2,15-21,21.2c-4.9,3.9-10.8,6.8-16.3,9.7c-2.5,1.3-6,2.5-9.1,3.6c-3.5,1.2-5.6-0.9-7.3-3.7c2.7-2,5.3-4,8-6.1
	c5.3-1.1,9.5-4,13-8c8.5-5.5,15.2-13.1,22.4-20c8.6-8.1,19.1-13.5,29.3-19.3c2.9-1.7,6.2-0.2,9.3-0.8
	C546.4,625.1,547,625.1,547.7,625.1z"/>
<path class="st3" d="M298.9,541.3c0.4,3-0.6,4.6-3.4,6.2c-7.9,4.6-16.6,5.7-25.3,6.5c-8.7,0.8-17.6,1.1-26.2-0.1
	c-7.8-1.1-15.4-1.5-23.2-1.8c-3.6-0.1-7-2.1-9.2-4.4c-3.9-4.1,1-4.9,3.3-6.5c7.1,1.5,13.8,7.4,21.7,2.4c0.5-0.3,1.6,0.1,2.4,0.2
	c14.6,1.2,29.1,0.1,43.6-1.9C287.9,541.1,293.4,540.8,298.9,541.3z"/>
<path class="st3" d="M603.9,574.3c2.1-2.3,1.1-5.6,2.8-8c0.4,0.8,1.2,0.8,2,0.8c1,3.3,3.6,5.3,6.2,7.2c-3.4,5.4-6.7,10.7-10.1,16.1
	c-0.2-4.1-1.8-3.5-4.3-1.5c-2.8,2.2-3.5,6.7-7.7,7.4c-0.2-0.9,0.3-2.2-0.9-2.5c-1-0.3-1.3,0.8-1.6,1.5c-1.3,3-2.5,5.9-3.8,8.9
	c-1-0.6-2.6-1.8-2.9-1.6c-3.2,2.9-6.7,0.6-10,0.7c-1.7-1.5-3.3-1.4-5,0c-5.2-1.2-9.9,0.8-14.8,2.1c-2.3,0.6-3.9,0.8-2.6-2.2
	c1-2.3-1.2-5.5,2.2-7c3.9,2.6,6.5-0.3,9.1-2.5c3.9-3.3,8.1-6.1,13.1-7.5c1.1,0.3,0.9,2.3,2.7,2.1c0.3-2.7,0.6-5.5-0.8-8.1
	c0.4-0.4,0.7-0.8,1.1-1.2c1,0.1,2,0.1,3,0.2c-0.3,3.9,2.3,4.1,5.2,4.1c1.2,0,3.7-0.8,3.3,1.5c-1.5,8,2,3,4.1,1.7
	c1.5-1,2.9-2.1,4.3-3.2C603.3,581.9,603.4,578,603.9,574.3z"/>
<path class="st3" d="M525.8,522.2c-1.1-0.6-1.9-1.4-2.1-2.7c0.4-3.3-0.1-6.3-2.7-8.6c-4.4-4-4.5-9.2-4.2-14.6
	c0.1-2.1,0.4-3.2,2.9-2.3c6,2.2,12.9,2.7,16.9,8.8c0.6,0.9,1.2,1.7,2.2,0.5c0.7,1,1.4,2,2.1,3c-2.7,2.6-0.8,7.1-4.2,9.5
	c-1,0.7-1.4,2.5-0.5,3.6c1.1,1.4,2.5,0.1,3.6-0.3c4.3-1.4,8.4-3.6,13.2-1.9c1.3,0.5,3.4,0.6,3.8-1.9c1,0,2.2-0.3,2.9,0.2
	c1.8,1.3,5.2,1.2,5.5,3.6c0.2,2-2.6,2.9-4.3,4.3c-2.8,2.3-5.5,4.7-8,7.2c-3.6,3.5-6.2,2.5-9.1-0.2c0.3-5.4-4.2-5.3-7.4-5.8
	c-3-0.5-5.8-0.7-8-3C527.1,520.1,526.1,520.2,525.8,522.2z"/>
<path class="st3" d="M239,584.4c-1.7,6.1-7.2,5.4-11.5,5.6c-10,0.5-20.1,0.2-30.1,0.7c-4,0.2-8.1-1.4-11.7-3.5
	c-1.9-1.1-1.7-2.3-0.9-4.1c2.9-6.5,8.6-8.2,14.9-9c6.5,0.9,12.4,4.8,19.3,4.2c5.4-0.4,10.9-0.1,16.4-0.1c2.5,0,4.4,0.2,1.8,3.2
	C234.6,584.3,237.3,584,239,584.4z"/>
<path class="st3" d="M619.6,579.3c1.6-4.2,3.4-8.3,4.9-12.5c1.2-3.3,3.6-4.5,6.9-4.6c4.8-0.1,9.6-0.2,14.5-0.3
	c1.5,0.4,2.8,0.3,3.1-1.6c9.5-0.6,17.8-4.6,25.9-9.1c1.3-0.7,2.7-1.4,4-2.1c2.5,3.4,2,7.3,1.9,11.2c-1.2,0-2.3,0-3.2,0.9
	c-4.4,4-7.8,9.3-14.1,10.8c-0.3,0.1-0.3,1.5-0.5,2.3c-4-3.9-9-2.7-13.7-2.5c-1.4,0.1-2.9,0.5-4.3,0.5c0.1-0.3,0.2-0.6,0.3-0.9
	c0.6-1.6,4.4-1.1,2.9-3.4c-1.1-1.6-3.1,0.7-4.7,1.3c-0.2,0.1-0.3,0.1-0.4,0.2c-3.5-3-6,0-8.2,1.7c-4.6,3.7-10.1,5.8-15,9.1
	C619.8,579.9,619.7,579.6,619.6,579.3z"/>
<path class="st3" d="M331.8,635.2c-1.1,4.2-4.5,6.8-7.7,8.7c-12.1,7.1-21.7,17.3-33,25.5c-10.1,7.3-19.8,15-29.3,22.9
	c-2.4,2-4.9,4-6.9,6.5c-7.2,8.7-16.3,7.6-25.5,5c-3.1-0.9-6.6-2-9.3-6.1c7.1,2.5,13.1,4.6,19.8,3.7c2.9-0.4,5.6-1.1,7.9-2.7
	c7.9-6,15.8-12,23.1-18.9c8.5-8.1,17.7-15.4,26.7-23c4.8-4,9.3-8.4,14-12.6c1.3-1.2,2.3-2.9,4.4-3.1c1.5,2,2.9,0.2,4.4,0
	C324.8,640.6,327.1,635.6,331.8,635.2z"/>
<path class="st4" d="M298.9,541.3c-5.5-0.5-10.9-0.2-16.4,0.6c-14.5,2-29,3.1-43.6,1.9c-0.8-0.1-1.8-0.5-2.4-0.2
	c-7.9,5-14.6-0.9-21.7-2.4c6.4-3.1,13.4-2.6,19.9-2.1c13.4,1.1,26.4-1.7,39.5-3.3c7.8-0.9,15.6,0.1,23.3-1.5
	c2.4-0.5,4.8-1.1,7.3-1.3c1.9,2.5,4.8,4.5,5,8C306.1,541.1,302.5,541.2,298.9,541.3z"/>
<path class="st4" d="M325.8,594c0.5,4.8-4,6-6.6,7.9c-11.2,8.4-19.3,20-29.8,29.1c-3.1,2.7-6.6,5-9.7,7.5c-6.7,5.5-14.6,9.6-21,15.4
	c-10.1,9.3-21.5,17.1-30.9,27.2c-0.6,0.7-1.3,0.9-2.2,0.9c0.7-6.2,5.6-9.8,9-14.3c5.3-6.9,13.6-10.3,20.2-15.7
	c1.4-0.1,2.4-0.8,3.1-2c8.7-7,18.8-12.2,26.8-20.1c3.4-3,7.3-5.6,9.2-10c2.2-2.8,5.7-4.8,5.9-9c0,0,0,0,0,0c1.2,0.4,2.3,0.1,3-1
	c2-2.4,5.6-3,7.1-6c1.3-0.2,2.3-0.9,2.9-2.1c1.4,0,2.4-0.7,2.9-2C319.1,598.1,322.4,596.1,325.8,594z"/>
<path class="st4" d="M675,547.3c-2.8-2.4-4.3-5.9-5.9-9c-2.8-5.2-5.9-9.8-11.3-12.7c-6-3.3-9.3-9.9-15.7-12.9
	c-1.9-0.9-3.4-1.5-5.6-0.9c-6.1,1.8-10.7,0.7-14.9-5.1c-3.1-4.2-9-6.3-13.5-9.4c-1-0.7-3.9-0.4-2.1-3.1c3-0.4,5.9-0.7,8.8,0.2
	c0.3,0.2,0.7,0.5,1,0.7c0.1-0.2,0.3-0.4,0.4-0.5c-0.4-0.1-0.8-0.2-1.3-0.4c1.1-1.2,2.6-0.6,3.9-0.8c0.5,0.7,1.2,0.9,2,0.9
	c0.3,0,0.7,0.1,1,0.1c0.7,0.3,1.3,0.7,2,1c1.6,1.2,3.9,0.9,5.2,2.6c-1.9,0.9-3.6,0-5.2-0.6c-1,0.3-0.7,0.7-0.1,1.1
	c0,1.4,0.1,2.8,2,2.9c1.6,2.7,4,3.9,7,4.1c0.5,0.8,1.2,1,2.1,0.8c0,0,0.5,0,0.5,0l0.5,0c6.8,2.8,12.7,7.4,19.2,10.8
	c12.1,6.4,18.9,16.6,22.8,29.2C676.8,546.6,675.9,546.9,675,547.3z M621.2,496.8c0-0.1,0-0.3-0.1-0.3c-0.1-0.1-0.3-0.1-0.4-0.1
	c-0.4,0.2-0.3,0.4,0.1,0.6C620.9,497,621,496.9,621.2,496.8z"/>
<path class="st3" d="M598,562.1c0.9,3.5-1.8,8-6.3,10c-1.8,0.8-3.7,1.4-5.6,1.9c-6.2,1.3-7.5,0.2-8.2-6c-0.5-4.5-2.2-8.6-4-12.7
	c1.7-0.2,2.3-1.1,1.7-2.7c-0.4-1.1-0.8-2,0.3-3.1c6.4-5.8,10-5.4,14.6,2c1.4,2.2,2.2,4.7,2.7,7.3C593.4,560.8,593.7,564.9,598,562.1
	z"/>
<path class="st4" d="M373.9,731.2c-3.3-0.1-3.8-1.1-1.6-3.8c8-9.9,16.1-19.6,22.7-30.5c2.6-4.3,6.1-7.9,10.1-10.9
	c7.2-5.4,12.9-12.5,20.5-17.2c1.7-1.1,3.3-2.5,5.2-0.5c-7.6,7.1-14.9,14.4-21.8,22.2c-11.3,12.7-22.3,25.7-32.9,38.9
	C375.5,730.1,374.6,730.6,373.9,731.2z"/>
<path class="st4" d="M375.9,752.7c-0.1-1-0.1-2.2,0.9-2.7c7.9-4.2,11.4-12.2,16-19.1c5.6-8.3,13.4-14.7,18.8-23.1
	c1.8-2.8,4.6-2,6.9-2.6c8.1-2.1,13.1-8.7,19.7-13.1c1.6-1,2.9-2.2,4.9-1.8c-5.7,6.5-12.3,12-19.3,17c-11.4,8.3-20.7,18.5-29.1,29.7
	C389.8,743.7,383.7,749.2,375.9,752.7z"/>
<path class="st3" d="M232.8,647.2c5.4-4.8,10.4-10.4,16.4-14.3c4.7-2.9,8-6.9,11.7-10.6c11.2-11.2,23.4-21.1,36.7-29.9
	c5.6-3.7,11-8,17-11.1c1.1-0.6,2.7-1.9,3.6-0.5c1.1,1.8-1,2.5-2.2,3.2c-7.4,4.5-15.7,7.8-21.7,14.1c-6.3,6.6-14.2,11.3-19.8,18.6
	c-5.2,6.8-12.8,10.9-19.4,16.1c-5.2,4.1-9.6,9.1-15.4,12.4C237.4,646.6,235.4,647.5,232.8,647.2L232.8,647.2z"/>
<path class="st3" d="M547.9,498.3c0.9,0.1,2.2-0.4,2.5,0.9c0.2,1-0.9,1.3-1.6,1.5c-2,0.8-4.1,0.8-6-0.3c0.2-1.9,2.7-0.4,2.8-2.4
	c-0.3-0.2-0.6-0.6-1-0.6c-2-0.1-4.4-0.1-5-2.4c-1.4-5-5.5-5.2-9.4-5.8c-2.2-0.3-4.3-0.9-4.1-3.8c2.3,0,4.1-1.2,6-2.3
	c1.2-0.7,1.4-2-0.1-2.6c-4.5-2-8.3-0.1-9.9,4.8c-4.9,0.2-8.3-3.8-13-4.2c1.8-3.8,3.3-7.6,1-11.8c4.4-0.7,7.9,2.5,12.1,2.9
	c0.4,0.8,1.1,0.9,1.9,0.8c2.1,0.5,4.3,0.7,6.1,2.2c0.8,2.4,3.8,2.1,4.9,4c-0.3,2.8,1.1,4.3,3.1,6.3c4.3,4.1,9.3,7.1,13.9,10.6
	c-1.5,0.5-3.8-0.7-4.1,2.1c-0.1,0.2-0.3,0.4-0.4,0.5C547.5,498.5,547.7,498.4,547.9,498.3z"/>
<path class="st4" d="M319.9,688.3c-0.6-0.4-1.2-1.3-0.7-1.6c2.8-1.9,3.9-5.3,6.2-7.4c12.1-11,23.9-22.3,39.2-29.2
	c7.9-3.6,16.1-3.4,24.3-4.9c1.5-0.3,3.5-0.6,3.9,1.9c-6.6,1.5-13.3,2.3-19.6,4.9c-13.8,5.7-25.4,14.4-36.6,24.1
	C331.4,680.6,326.2,685.3,319.9,688.3z"/>
<path class="st4" d="M485.9,500.3c-6.9-2.4-13.9-4.8-20.8-7.3c-1.6-0.6-4.1-1.4-3.9-3.3c0.3-2.7,2.9-1.2,4.5-1.3
	c10.7-1,21,2.4,31.6,3.2c2.8,0.2,5.4,1.5,7.5,3.5c-0.2,1.4-0.8,2-2.3,1.5c-1.9-0.6-3.8-0.9-5.8-1.2c-1.1-0.2-2,0.3-2.4,1.3
	c-0.4,1,0.5,1.4,1.2,1.9c4.4,2.6,8.8,5.1,13.2,7.7c-0.3,2.6,2.9,3.9,2.2,6.8c-6.8-4.1-12.9-9-20-12.4c-1.4-0.7-2.5-1.5-4.1-1
	C486.2,499.4,486,499.8,485.9,500.3z"/>
<path class="st4" d="M369.7,611.2c2.9-1.2,5.7-0.8,8.4,0.6c2.1,1.1,4.3,1.5,6.6,1.4c0.4,0.6,0.8,1.2,1.2,1.8
	c-0.1,2.2,1.4,2.2,2.9,2.1c3,2.3,6,4.6,9,7c-0.9,2.3,4,1.7,2.2,4c-1.6,2-4,1.2-5.9,0.1c-2.4-1.4-4.5-0.3-6.5,0.7
	c-3.8,2-6,0.8-6.7-3.2c-0.5-2.6-2.1-3.8-4.3-4.8c-2.9-1.4-3.3,1.5-4.5,2.6c-4.1,3.7-7.4,8.5-13.4,9.6c0.3-2,1.8-3.1,3-4.4
	C366.3,623.9,369.8,618.4,369.7,611.2z"/>
<path class="st3" d="M223.9,607.5c-4.6,4.6-5.7,12-13.1,14.4c-3.4,1.1-6.6,3.1-9.8,4.9c-3.5,1.9-10.8,1.6-13.4-1.1
	c-1.7-1.8-1-4.1,1-5.6c2.4-2,4.9-3.8,8-4.8c8.9-2.9,17.7-5.9,26.6-8.9C223.4,606.7,223.6,607.1,223.9,607.5z"/>
<path class="st4" d="M271,672.3c-3.3-0.7-1.6-2.1-0.4-3.3c18.3-19.3,38.7-36.3,60.3-51.8c3.3-2.3,6.8-4.2,10.6-5.4
	c1.3-0.4,2.5-1,3.5,0.5c-5.9,3.6-12.5,6.2-17.7,10.8c-12.4,10.7-25.1,21-36.3,33.1C285.2,662.4,278.7,668.3,271,672.3z"/>
<path class="st4" d="M239,584.4c-1.7-0.3-4.4-0.1-1.9-3c2.6-2.9,0.7-3.2-1.8-3.2c-5.5,0-11-0.3-16.4,0.1c-6.9,0.5-12.8-3.4-19.3-4.2
	c3.4-2.2,6.9-2.9,11.2-2.2c5.2,0.8,10.8,1.6,16-0.9c2.7-1.3,4.9,2.2,7.9,1.3c3.7-1.1,7.5,0.2,11.3,0c2-0.1,4.2,0.7,4.7,2.2
	c0.6,1.8-1.1,3.6-2.8,4.6C245,580.9,242,582.6,239,584.4z"/>
<path class="st4" d="M530.7,545.2c-2.2-0.1-3,2.5-5,2.8c-0.2-0.4-0.5-0.7-0.5-1c0-2,3.3-3.9,1.8-5c-2.5-1.9-3.4,2.2-5.5,2.8
	c-4.3,1.3-7.6,3.5-9.8,7.5c-0.5,0.8-1.3,1.1-2.1,0.6c-0.8-0.5-0.8-1.4-0.7-2.2c0.1-0.6,0.4-1.3,0.7-1.9c3.2-6.7,1.2-12.9-2.1-18.7
	c-1.4-2.6,1.6-3,1.3-4.7c5.3-1.1,8.3,1.3,9.2,6.4c0.7,4,2.4,5,6.5,3.9c2.5-0.7,6.2-2.4,8.3,1.5c-1.8,1.4-0.8,3.4-1,5.1
	c0,0.6,0,1.3,0,1.9C531.4,544.5,531.1,544.9,530.7,545.2z"/>
<path class="st4" d="M296.8,563c0.6,2.6-1.3,3.7-3,4.6c-11,6.1-21.5,13-31.8,20c-4.5,3.1-8.8,6.3-12.8,10
	c-4.7,4.3-10.1,7.9-15.6,11.3c1-3,5-4.1,4.2-7.9c7.2-7.2,15.6-12.8,24-18.5C272.9,575.1,284.3,568.1,296.8,563z"/>
<path class="st4" d="M210,555.1c11.2,1.9,22.5,0.2,33.8,2.6c9.3,2,19.4,0.4,29.7,0.4c-4.4,6-10.2,6-16,5.8
	c-12.3-0.3-24.3-4.3-36.7-2.7c-2-2.6-5-1.7-7.6-2.2C211.3,558.8,207.6,559.2,210,555.1z"/>
<path class="st4" d="M412.6,642.3c2.7-1.4,3.2-5.8,7.4-5.2c0.6,0,1.1,0,1.7,0.1c0.4,0,0.8,0,1.2,0c0.6,0,1.2,0,1.9,0.1
	c0.6,2.1,1.5,3.7,4,2c5,2.2,10.3,3.7,14,8.2c-0.7,1.6,1.9,3.3-0.2,5c-2.1,1.6-3.3-0.5-4.9-1c-1.7-0.5-3.7-1.4-5.2-1
	c-4,0.9-7.1-0.2-9.8-2.8c-1.1-1.1-2.2-1.2-3.5-0.4c-1.6,1-3.4,1.3-5.2,1.1C411.9,646.6,413.3,644.2,412.6,642.3z"/>
<path class="st4" d="M335.7,683.8c-0.2,6.5-4.8,10.3-9.1,14c-11.2,9.7-22.9,18.9-35.5,26.7c-2.8,1.7-5.6,1.8-8.6,1.6
	c0.4-2.7,3-2.9,4.7-3.9c14.4-8.4,26.7-19.4,38.7-30.8C329,688.6,332.2,686,335.7,683.8z"/>
<path class="st4" d="M650.8,554.1c-0.1-1.9-1.6-2.8-2.7-4c-5-5.3-10.7-9.9-15-16c-4-5.7-10.7-7.5-16.1-11.3
	c-1.8-1.3-4.7-2.8-1.3-5.6c7.9,3.4,15.1,7.7,21.1,14.1c4.4,4.6,9.6,8.4,13.6,13.5c1.4,1.8,2.9,3.6,4.2,5.5c0.9,1.3,1.9,3,0.5,4.5
	C653.5,556.6,652.3,554.3,650.8,554.1z"/>
<path class="st4" d="M481.8,630.3c-0.8,5.7-6.2,7.8-9.4,11.6c-1,1.1-2.6,1.7-3.4,2.8c-5.6,7.3-14.3,11-20.4,17.7
	c-2.6,2.8-5.4,5.5-8,8.3c-1.5,1.7-2.8,2.6-3.7-0.4c0.6-1,1.3-2,1.9-3c2.1,0,2.1-1.5,2.1-3c5.4-7,13.1-11.6,19-18.1
	c0.9-0.3,1-1.1,1.1-1.9c0,0,0,0,0,0c1.9-0.1,2.8-1.3,3-3.1c3-2.3,6-4.7,9-7c3.5,0.7,5.4-2.2,7.8-3.8
	C481.1,630.4,481.5,630.3,481.8,630.3z"/>
<path class="st3" d="M566.8,494.3c-9-1.4-14.4-8.1-20.3-14c-5.2-5.2-11.9-8-17.4-12.7c-2.6-2.2-6.5-0.5-9.3-2.4
	c4.4-1.9,8.6-1,12.7,0.9c5.1,2.4,9.8,5.5,14.5,8.6c1.4,0.9,3.7,3.5,4.9-0.6c3.9,2.4,8,4.6,9.9,9.1c-4.3,0.4-3.7,2.5-1.4,4.7
	C562.6,489.9,565.5,491.3,566.8,494.3z"/>
<path class="st4" d="M413.9,524c-0.4,2.8-2.1,3.6-4.6,2.9c-2.5-0.7-5.1-1.5-7.6-2.2c-2.3-0.7-4.4-1.9-6.5,0.9c-1,1.3-3.5,1.2-5-0.1
	c-2.7-2.4-5.3-2.1-8.1-0.3c-1.3,0.8-2.7,1-4.3,1.2c-3.6,0.4-3.9-1.3-2.9-4c3.6-1.6,7-3.5,10.6-5.1c7.2-3,12.9-0.7,18.7,2.9
	c3.1,1.9,6.3,2.9,9.8,3C413.9,523.4,413.9,523.7,413.9,524z"/>
<path class="st3" d="M492.7,486.2c-4.3-1.2-8.6-2.3-13.2-1.9c0.1-3.2,1.5-6,3.3-8.6c1.3-1.9,2.5-3.9,1.8-6.4c2.8,0,5.6-0.1,8.3-0.1
	c2.2,0.1,4.3,0.3,4.9,3c0.6,1.5,3,2.7,0.8,4.5C495.7,479.3,494.8,483.1,492.7,486.2z"/>
<path class="st3" d="M309.8,541.1c-0.3-3.6-3.1-5.5-5-8c2.5-1.9,5.6-2.2,8.5-2.9c7.1-1.7,14.4-2.5,21.3-5.5c2.1-0.9,4.8-1.1,7.2-0.4
	l0.1,0.1c-3,4.1-7.6,6.4-12.1,7.7C322.6,534,316.3,537.7,309.8,541.1z"/>
<path class="st4" d="M551.9,474.1c-1.1,4.1-3.4,1.5-4.9,0.6c-4.7-3-9.4-6.2-14.5-8.6c-4.1-1.9-8.3-2.7-12.7-0.9
	c-8.5,0-16.7-2-25.1-3.7c4.5-0.4,9.1-1.5,13.6-1c7.8,0.8,15.8-1.6,23.5,1.3C539.4,464.5,546.2,468.4,551.9,474.1z"/>
<path class="st3" d="M636.8,624.1c-9.3-2.4-18.6-4.2-28.8-1.6c2.1-5.1,3.4-9.4,9.9-7.4c2.7,0.8,4.8-2.9,7.8-1.9
	c2.6,2.5,5.4,3.6,9,2.1c1.2-0.5,2.5-0.8,3.8-1c2.4-0.3,3.4,0.2,2.3,3C639.9,619.8,637.2,621.3,636.8,624.1z"/>
<path class="st3" d="M316.8,545.2c-9.6,7.2-20.8,11.3-31.1,17.2c-10.9,6.2-22.4,11.3-32.4,20.4c-0.2-3.5,1.9-4.5,3.3-5.6
	c9.3-7.4,19-14.3,29.5-19.7c5.8-2.9,11.8-6,18.3-7.6C308.8,548.8,311.9,544.6,316.8,545.2L316.8,545.2z"/>
<path class="st4" d="M497.8,472.3c-0.5-2.8-2.7-3-4.9-3c-2.8-0.1-5.6,0-8.3,0.1c-0.6-0.1-1.2-0.3-1.8-0.4c0-0.9,0-1.7,0-2.6
	c9.1-0.1,18.3-1,27,2.9c2.3,4.2,0.8,8-1,11.8c-0.7,0.7-1.4,1.4-2.1,2.1c-2.5,0.4-3.7,2.2-4.9,4.1c-1.7-0.3-3.7,0.5-5.1-1.1
	c2.1-3.1,4.1-6.3,6.2-9.4c0.8-1.2,2.6-2.1,1.6-3.8c-0.9-1.5-2.7-0.7-4.1-0.8C499.5,472.1,498.7,472.2,497.8,472.3z"/>
<path class="st4" d="M337.9,562c-0.4,4,4.9,3.1,5.8,7c-3.9-1.7-7.7-2.7-11-4.2c-7.9-3.7-15.7-4.6-24-2c-4.8,1.5-3.8-1.9-3.9-4.5
	C315.2,552.6,330.1,554.3,337.9,562z"/>
<path class="st4" d="M598,562.1c-4.2,2.9-4.5-1.3-4.9-3.3c-0.5-2.7-1.4-5.1-2.7-7.3c-4.5-7.4-8.2-7.8-14.6-2c-1.2,1.1-0.7,2-0.3,3.1
	c0.6,1.6,0,2.5-1.7,2.7c-6.3-6.7-6.3-6.7,3.1-12.3c2.6-0.8,5.6-0.8,7-3.8c2.7-0.3,4.4,1.4,5.7,3.2
	C593.8,548.3,597.4,554.5,598,562.1z"/>
<path class="st4" d="M569.9,615.2c-4.9-1.4-9.6-0.8-14.2,1.1c-0.3,0-0.6,0-0.8,0.2c-4.1,0.3-7.8,2.8-12,2.6c-0.4-2,0.6-3.8,1-5.8
	c9.8-3,19.7-5.3,30-5c1.3,0,3.4-0.8,3.7,1.3c0.3,1.6-0.6,3.2-2.5,3.7c-0.8,0.2-1.5,0.7-2.2,1.1C571.8,614.7,570.8,615,569.9,615.2z"
	/>
<path class="st4" d="M538.8,503.2c-1,1.2-1.6,0.5-2.2-0.5c-4-6.1-10.9-6.6-16.9-8.8c-2.4-0.9-2.8,0.2-2.9,2.3
	c-0.3,5.4-0.2,10.6,4.2,14.6c2.6,2.3,3.1,5.3,2.7,8.6c-9.3-7.1-11.3-17.4-11.9-28.2c-0.1-2.7,0.9-3.8,3.6-2.9
	c2.5,0.9,4.9,1.8,7.4,2.8c1.4,2.2,3.8,2.4,6,2.8C533.9,495.2,536.7,498.9,538.8,503.2z"/>
<path class="st4" d="M331.8,635.2c-4.7,0.4-7,5.4-11.7,5.9c-1.5,0.2-2.9,2-4.4,0c8.6-7.9,16.3-16.9,27.4-21.6c1.5-0.6,3-1.5,4.7-1.3
	c0,0.7,0,1.4,0.1,2.1c-3.7,3.3-7.4,6.7-11.2,10C334.9,631.8,333,633.2,331.8,635.2z"/>
<path class="st4" d="M636.8,624.1c0.4-2.8,3-4.2,4-6.7c1.1-2.8,0-3.3-2.3-3c-1.3,0.2-2.6,0.5-3.8,1c-3.6,1.5-6.4,0.4-9-2.1
	c6.9-3.3,14.3-4.2,21.8-4.8c1.7-0.1,2.2,0.8,1.9,2.6c-0.9,5.3-3.6,9.5-7.2,13.2C640.5,625.8,638.6,625.2,636.8,624.1z"/>
<path class="st5" d="M580.4,523.7c-8.7-0.3-14,5.8-20,10.4c-1.8,1.4-3.4,3-5.2,4.5c-1.3,1.1-3.5,2-2.1,4.8c0.8,1.6-0.7,3.6-1.9,4.1
	c-1.6,0.6-2.1-1.5-2.7-2.8c-1.2-2.5-0.9-4.8,1.1-6.8c6.1-6.3,13.2-11.3,21-15.1C573.6,521.3,577.3,521.5,580.4,523.7z"/>
<path class="st4" d="M610.7,516.4c-3.3,3.4-7.5,1.7-11.2,1.4c-3-0.2-5.7-1.6-8,1.6c-1.8,2.5-4.8-1.8-6.7,0.9c-1-0.1-2-0.2-2.9-0.3
	c-1.6-2.7-3.3-2.5-5-0.2c-1.1-0.1-2.9,1.2-3.2-0.9c-0.3-1.6,1-2.6,2.4-3.4c4-2.1,8.5-1.5,12.7-1.8
	C596.1,513.1,604,510.8,610.7,516.4z"/>
<path class="st3" d="M598.7,620.1c-3.7,6-8.7,3-13.3,1.9c-2.1-0.5-1.4-1.8-0.8-3c2.7-5.2,6.7-8,12.7-7.8c2.2,0.1,4.3,0,6.5,0
	C603.4,615,599.5,616.7,598.7,620.1z"/>
<path class="st3" d="M193,645.2c-4.1-1-8.4-1.2-12.5-2.8c-3.2-1.2-3-3-1.7-5.4c2.4-4.2,8.3-4.8,11.8-1.5c1.4,1.3,2.1,3.3,4.3,4
	c1.5,0.5,4.4,0.3,3.6,3C197.8,644.8,195.2,645,193,645.2z"/>
<path class="st3" d="M578.8,510.3c-2.1,2.3-4.6,1.5-7,1c-1.6,0.2-3,0.6-4,1.9c-3.4-0.6-6.3-3.2-10-3c-0.3,0-0.7,0-1,0
	c-3.2,0.4-5.5-2.1-6.8-3.9c-2.3-3,2-1.7,2.9-2.9c-0.2,2.2,1,2.9,3,2.8c2.3-0.1,4.5-0.7,6.5-2c1.5-1,3-1.4,4.6-0.3
	c2.1,1.5,4.5,1.8,6.8,2.5C575.7,507.1,578.4,507.4,578.8,510.3z"/>
<path class="st4" d="M598.7,583.2c-1.4,1.1-2.8,2.2-4.3,3.2c-2,1.3-5.5,6.3-4.1-1.7c0.4-2.4-2.1-1.5-3.3-1.5c-2.9,0-5.4-0.2-5.2-4.1
	c0.7-0.3,1.4-0.6,2-1c6.1-0.2,11.2-2.7,16-6.2c0.9,0.2,1.9,0.4,2.8,0.6c0,0.5-0.1,1-0.1,1.5C601.2,577.2,599.9,580.2,598.7,583.2z"
	/>
<path class="st3" d="M404.9,658.3c-0.5,4.7-4.9,6.5-7.5,9.5c-8.1,9.4-15.3,19.7-24.7,28c-2.2,1.9-4,4.4-7.4,4.7
	c13.2-14.3,26.5-28.4,37.7-44.3C403.6,656.9,404.2,657.6,404.9,658.3z"/>
<path class="st4" d="M498.8,522.3c-4.5-3.1-8,0.8-11.5,2.2c-6.5,2.6-13.2,1.9-20.2,4.1c1.4-5.3,6.7-3.4,8.7-6.4
	c5.8-0.4,11.1-2.5,16.5-4.2c2.2-0.7,4.5-2,7.1-1c1.4,0.6,3.7-0.2,4.1,2c0.3,1.7-1.7,2.2-2.7,3.2
	C500.1,522.2,499.5,522.2,498.8,522.3z"/>
<path class="st3" d="M191.8,595.3c3-0.8,5.4,1.4,8.1,2c2.7,0.6,5.4,1.3,8.3,1c-6.4,1.7-12.5,4.4-18.7,6.1c-2.8,0.8-6.9-2.4-10.1-4.4
	c-1.9-1.2-3.2-3.3-4.5-5.2c-1.7-2.7-2.2-5.3,1.7-6.8c0.6,4.7,5.4,10.5,9.8,11.2C189.1,599.5,192.4,600.1,191.8,595.3z"/>
<path class="st4" d="M578.8,510.3c-0.5-2.9-3.1-3.2-5.1-3.9c-2.3-0.7-4.8-1.1-6.8-2.5c-1.5-1.1-3-0.7-4.6,0.3
	c-1.9,1.3-4.1,1.9-6.5,2c-2,0.1-3.2-0.6-3-2.8c5.8-1.4,11.1-6,17.5-3.2c5.6,2.5,12.2,3.2,16.6,9.1C584,510.7,581.4,510,578.8,510.3z
	"/>
<path class="st3" d="M561.7,546c-2.7-6,1-8.6,5.7-11.1c2.6-1.3,4.6-3.6,7-5.4c1.8-1.3,8.2-0.1,9.4,1.8c1.4,2.4-0.5,2-1.9,2.4
	c-7.6,2.5-14,6.9-19.5,12.8C562.2,546.5,562,546.2,561.7,546z"/>
<path class="st4" d="M228.8,611.2c1.4,0.3,2.2,0.6,0.9,2.2c-1.7,2-3.2,4.2-4.6,6.4c-4.1,6.6-5.6,13.8-5.6,21.5c0,1-0.5,1.9-0.7,2.9
	c-3.3-0.6-6-4.5-5.4-8.1c0.3-1.8,0.7-3.6,1.6-5.2C219,623.9,222.8,616.8,228.8,611.2z"/>
<path class="st4" d="M489.8,645.3c-0.3-2.6,0.5-4.5,2.6-6.4c7.3-6.5,16.4-10.5,24.1-16.3c0.6-0.4,1.6-0.2,2.4-0.2
	c0.1,2.1-0.8,3.7-2.6,4.5c-7.1,3.2-12,9.1-18,13.9C495.8,642.7,493.1,644.4,489.8,645.3z"/>
<path class="st4" d="M458.8,506.2c-1.8-2.2-4.3-2.1-6.8-2c-4.2,0.1-8.4-0.1-12.3-2.1c3.5-2.8,8.6-1.9,12-5c1,0.1,2,0.1,2.9,0.2
	c3.5,1.7,8.1,0.4,11.1,3.8c0,1.3,0,2.6,0,3.9C463.5,505.9,461.2,506.4,458.8,506.2z"/>
<path class="st2" d="M612.9,531.1c6.9,0.2,10.3,5.7,14.7,9.7c1,0.9-0.1,1.3-0.5,1.9c-0.8,1.2-1.5,0.8-2.4,0c-2-1.8-4.3-3-7-3.5
	c-3.8-1.7-7.9-1-11.9-1.9c-1.3-0.3-2.1,0.6-2.3,1.9c-2.6-1-3.2-3.5-2.4-5.5c1.2-2.7,3-0.7,4.8,0
	C608.9,534.7,611.7,534.7,612.9,531.1z"/>
<path class="st4" d="M488,512.1c-9.5,5.6-20.2,9.3-28.7,16.7c-0.5,0.4-1.2-0.2-1.6-0.8c1-3.1,3.4-4.9,5.8-6.6
	c4.5-3.3,9.1-6.5,14-9.2C480.7,510.5,484.4,508,488,512.1z"/>
<path class="st5" d="M561.7,546c0.2,0.2,0.4,0.4,0.6,0.7c-2.3,4.8,0.9,14.8,5.6,17.7c0.4,0.2,0.9,0.4,1.4,0.3
	c1.3-0.1,2.9-1.7,3.5,0.9c0.3,1.5-0.9,2-2,2.5c-1.6,0.8-3.6,2.3-4.9,0.2c-3.2-5.4-7.3-10.2-10.9-15.3
	C553.2,550.1,557.8,545.5,561.7,546z"/>
<path class="st4" d="M551.8,496.1c-4.6-3.6-9.6-6.6-13.9-10.6c-2-1.9-3.4-3.5-3.1-6.3c1.7-0.2,3.3,2.3,5,0
	c6,5.1,11.1,11.1,17.1,16.9C555.2,496.1,553.5,496.1,551.8,496.1z"/>
<path class="st4" d="M662.8,574.2c0.2-0.8,0.2-2.2,0.5-2.3c6.3-1.5,9.8-6.8,14.1-10.8c0.9-0.9,2.1-0.9,3.2-0.9
	c0.7,6.6-3.6,10.8-7.8,14.7C669.9,577.7,666.1,575.5,662.8,574.2z"/>
<path class="st4" d="M556.8,515.2c-0.3,2.5-2.4,2.4-3.8,1.9c-4.8-1.8-8.9,0.5-13.2,1.9c-1.1,0.4-2.5,1.7-3.6,0.3
	c-0.9-1.1-0.5-2.9,0.5-3.6c3.3-2.4,1.5-6.9,4.2-9.5C545.2,510.9,550.6,513.9,556.8,515.2z"/>
<path class="st4" d="M619.7,580.2c4.8-3.3,10.3-5.4,15-9.1c2.2-1.8,4.7-4.7,8.2-1.7c0,0.3,0,0.6-0.1,0.9c-6,4.1-12,8.2-18.1,12.3
	c-2.9,2-6,3.2-9.5,3.6c-0.6-3.5,2.8-3.9,3.5-6c0,0,0.5,0.1,0.5,0.1L619.7,580.2z"/>
<path class="st4" d="M575.9,586.2c-5,1.4-9.2,4.1-13.1,7.5c-2.5,2.1-5.1,5.1-9.1,2.5c6.1-6.3,12.6-11.9,21-14.8
	C575.1,582.9,575.5,584.6,575.9,586.2z"/>
<path class="st4" d="M365.8,540.4c0,1.9,0.2,3.8-2.6,3.8c-4.7-0.1-9.3,0.1-14-0.1c-3.6-0.2-6.2-1.9-6.4-6
	C350.6,537.7,358,541,365.8,540.4z"/>
<path class="st3" d="M482.8,466.3c0,0.9,0,1.7,0,2.6c-1.3,0.7-3.7-0.5-4,2.1c-3,4.2-7.2,8.2-3,14c-2.8,0.2-5.7,0.6-8-1.8
	c2.1-1.9,5-3.5,3-7.2c-0.3-2,1.6-4,0-6C474.6,468.1,478.6,466.9,482.8,466.3z"/>
<path class="st4" d="M175,634.8c-4.6-8.7-0.4-14.4,4.4-18.7c0.8-0.7,1.9-1.8,3-0.9c0.5,0.4,0.6,2.2,0.2,2.8
	C179.1,623.1,179.6,629.9,175,634.8z"/>
<path class="st4" d="M279.5,624c5.9-7.8,14.3-12.7,21.8-18.5c0.6-0.5,1.6-1.3,2.6-0.3c-1,1.3-2.1,2.7-3.1,4c-0.8,0.4-1.1,1.1-0.9,2
	c0,0,0,0,0,0c-2.4-0.6-3.6,1.2-5,2.5c-4.3,4.2-8.8,8.4-13.9,11.7C280.4,625,280,624.5,279.5,624z"/>
<path class="st4" d="M566.8,494.3c-1.4-2.9-4.2-4.3-6.4-6.4c-2.3-2.1-2.9-4.3,1.4-4.7c0.8,1.6,2.8,1.3,3.9,2.3
	c0.6,0.6,1.3,0.8,2.1,0.6c2.3,0.5,4.3,1.5,6,3c0.8,3.5-3.8,2.9-4.2,5.5C568.7,494.5,567.8,494.4,566.8,494.3z"/>
<path class="st3" d="M508.7,506.2c-4.4-2.6-8.8-5.1-13.2-7.7c-0.7-0.4-1.6-0.9-1.2-1.9c0.4-1,1.3-1.5,2.4-1.3
	c1.9,0.4,3.9,0.7,5.8,1.2c1.6,0.5,2.2-0.1,2.3-1.5c0.9,0.5,2.9-1.4,2.9,1.1C507.7,499.6,509.6,502.8,508.7,506.2z"/>
<path class="st4" d="M374.7,699.9c-0.3,4.3-4.2,6.3-6.6,9c-4.2,4.8-8.5,10.2-15.5,11.3C359.4,712.8,365.9,705,374.7,699.9z"/>
<path class="st4" d="M191.8,595.3c0.6,4.7-2.7,4.2-5.4,3.8c-4.4-0.7-9.2-6.5-9.8-11.2c0.3-1.1,0.6-1.1,1.6-0.4
	C182.3,590.8,186.7,593.8,191.8,595.3z"/>
<path class="st4" d="M603.7,539.2c0.2-1.3,1-2.2,2.3-1.9c3.9,1,8.1,0.2,11.9,1.9c-0.1,2.7-0.5,5.1-4.1,5c-0.6-0.1-1.1-0.1-1.7-0.2
	C609.4,542.3,605.1,543.3,603.7,539.2z"/>
<path class="st3" d="M210,555.1c-2.4,4.1,1.3,3.7,3.2,4c2.7,0.4,5.6-0.4,7.6,2.2c-4.8,2.8-12.6,1.5-15.8-2.3
	c-1.8-2.1-0.5-3.3,0.9-4.5C207.5,553.1,209,552.1,210,555.1z"/>
<path class="st4" d="M592.9,596.2c4.2-0.7,4.9-5.1,7.7-7.4c2.5-2,4.1-2.6,4.3,1.5c-2.4,4.3-5.7,7.6-10,9.9c-0.7-0.7-1.4-1.4-2.1-2.1
	C592.8,597.5,592.8,596.9,592.9,596.2z"/>
<path class="st4" d="M613.8,548.3c-0.6,1.8,2.1,3.8-0.3,5.4c-2.2,1.5-3.4-1.2-5.2-1.7c-3.3-1-4.8-4.4-7.7-5.8c0.1-0.3,0.1-0.7,0.2-1
	c3.4-0.1,6.6,1.8,10,1.1C611.8,546.9,612.8,547.6,613.8,548.3z"/>
<path class="st2" d="M497.8,472.3c0.8,0,1.7-0.1,2.5-0.1c1.4,0.1,3.2-0.7,4.1,0.8c1,1.6-0.8,2.6-1.6,3.8c-2.1,3.1-4.1,6.3-6.2,9.4
	c-1.3,0-2.7,0-4-0.1c2.1-3,3-6.8,6-9.4C500.9,475,498.4,473.7,497.8,472.3z"/>
<path class="st4" d="M525.8,522.2c0.3-2,1.3-2.2,2.6-0.9c2.2,2.3,5,2.5,8,3c3.1,0.6,7.7,0.4,7.4,5.8
	C537.2,528.9,530.8,527.1,525.8,522.2z"/>
<path class="st4" d="M470.8,470.2c1.6,2-0.3,4,0,6c-1,1.7-2,3.4-3,5.1c-1.9,0.8-3.7,2.2-6,2l0,0C463.6,478,465.1,472.7,470.8,470.2z
	"/>
<path class="st4" d="M475.8,485.1c-4.2-5.8,0-9.8,3-14c3.5,1.3,2,3.6,1.2,5.7c-1,2.4-2.8,4.6-2,7.5
	C477.5,485,476.7,485.2,475.8,485.1z"/>
<path class="st4" d="M615,574.3c-2.6-1.9-5.2-3.9-6.2-7.2c0-0.3,0.1-0.6,0.1-0.8c2.5-0.4,5.6-2.6,7.3-0.2
	C617.9,568.5,617.1,571.8,615,574.3z"/>
<path class="st3" d="M480.7,630.5c-2.5,1.6-4.3,4.4-7.8,3.8c0.2-0.9,1.3-1.8,0.4-2.6c-1.5-1.2-2.9,0.7-4.4,0.6
	c1.8-4.6,5.6-5.7,9.9-6.1C476.6,628.9,480,629.1,480.7,630.5z"/>
<path class="st5" d="M595.2,542.9c-1.9-3.8-7.9-5.2-6.4-11.5C593.4,534.2,595,538.1,595.2,542.9z"/>
<path class="st3" d="M320.4,579c4-3.5,7.6-5.5,10.3-2.7c2.9,3-0.4,6.2-1.9,10C326.3,582.9,331.4,573.5,320.4,579z"/>
<path class="st4" d="M235.8,695.2c2.4-4.7,8.6-6.8,11.1-3.8C244.8,697.3,239.8,694.7,235.8,695.2z"/>
<path class="st2" d="M478,484.2c-0.9-2.9,1-5.1,2-7.5c0.8-2,2.3-4.4-1.2-5.7c0.3-2.6,2.6-1.4,4-2.1c0.6,0.1,1.2,0.3,1.8,0.4
	c0.7,2.5-0.5,4.5-1.8,6.4c-1.8,2.6-3.2,5.3-3.3,8.6C479,484.3,478.5,484.2,478,484.2z"/>
<path class="st2" d="M484.8,665.2c-3.5,4-7.7,6.8-13,8C474.8,667.5,480.7,663.9,484.8,665.2z"/>
<path class="st2" d="M521.8,485.2c1.7-4.9,5.5-6.7,9.9-4.8c1.5,0.7,1.4,1.9,0.1,2.6c-1.8,1.1-3.7,2.3-6,2.3
	C524.6,483.3,523.2,485.6,521.8,485.2z"/>
<path class="st3" d="M285,686.3c3.2-4.9,8.3-7.9,12.5-11.8c0.3-0.3,1.4-0.2,1.8,0.2c0.7,0.6,0.1,1.1-0.4,1.5
	c-4.3,3.7-8.5,7.4-12.8,11.2C285.7,687,285.3,686.7,285,686.3z"/>
<path class="st3" d="M279.5,624c0.5,0.5,1,0.9,1.4,1.4c-3.5,4.7-9.2,6.5-13.5,10.4C270.6,631,274.7,627.2,279.5,624z"/>
<path class="st4" d="M404.9,658.3c-0.7-0.7-1.3-1.3-2-2c0.6-1.6,1.2-3.2,1.8-4.9c0-0.7,0.1-1.4,0.1-2.1c1.7-1.1,3.4-0.7,4.5,0.6
	c1.3,1.5,0.1,3.1-0.6,4.6C407.8,656.1,406.6,657.4,404.9,658.3z"/>
<path class="st2" d="M599.8,506.3c4.8-0.2,9.6-0.7,13.4,3.3c-1.5,1.1-3.1,0.3-4.5,0.6C605.5,509.6,601.5,510.7,599.8,506.3z"/>
<path class="st2" d="M294,620.2c-1.9,4.4-5.8,7-9.2,10c-0.7-0.5-1.3-1.7-0.8-2.1C287.4,625.6,288.4,620,294,620.2z"/>
<path class="st2" d="M456.6,528.1c-0.3,1.5-1.7,1.8-2.7,2.6c-1.3,1-2.9,2.3-4.3,1c-1.7-1.7,0-3.2,1.2-4.5c0.5,0.8,0.8,0.5,0.9-0.2
	c-0.3-1.7-0.4-3.2,2.1-2.8C453.5,526.4,454.8,527.4,456.6,528.1z"/>
<path class="st2" d="M592.9,596.2c-0.1,0.7-0.1,1.3-0.2,2c-1.2,1.1-1.8,2.5-1.9,4c0,0,0,0,0,0c-0.8,0.4-1,1.2-1,2.1
	c-1.1,1.1-2.1-0.4-3.2-0.1c1.3-3,2.5-6,3.8-8.9c0.3-0.7,0.6-1.8,1.6-1.5C593.2,594.1,592.7,595.3,592.9,596.2z"/>
<path class="st3" d="M543.8,613.3c-0.4,1.9-1.4,3.7-1,5.8c-3,0.4-6,0.8-9,1.1c1-2.6,5.8-1.9,5.2-5.9
	C540.6,613.9,542.2,613.6,543.8,613.3z"/>
<path class="st2" d="M539.8,479.2c-1.7,2.2-3.3-0.2-5,0c-1.2-1.9-4.1-1.6-4.9-4C534.9,472.3,536.8,477,539.8,479.2z"/>
<path class="st2" d="M539,614.3c0.6,4-4.1,3.4-5.2,5.9c-1.7,0.3-3.4,0.5-5.8,0.9C531.1,617,535,615.6,539,614.3z"/>
<path class="st3" d="M605.8,612.2c3,1.1,3.7,2.8,0.8,4.6c-2.1,1.3-2.7,5.9-6.7,3.4C603.1,618.4,603.9,614.9,605.8,612.2z"/>
<path class="st2" d="M413.9,524c0-0.3,0-0.6-0.1-1c0.3-0.6,0.6-1.1,0.9-1.7c4-0.7,5.3,4.6,9.3,3.9
	C420.4,525.9,417.2,524.9,413.9,524z"/>
<path class="st2" d="M575.9,586.2c-0.4-1.6-0.8-3.3-1.2-4.9c0.7-1.2,1.9-1.1,3-1.1c1.4,2.6,1.1,5.3,0.8,8.1
	C576.8,588.5,577,586.5,575.9,586.2z"/>
<path class="st2" d="M640.8,525.2c2.4,2,5.1,3.7,6.1,7c-4.9,2.9-4.1-2.7-6-4.1C640.4,527.7,640.8,526.2,640.8,525.2z"/>
<path class="st3" d="M575.5,622.1c-1.8-0.5-3.3,1.8-5.6,0.4c2.8-2.1,5.4-4,8-6c1.7,1.4,0.2,2.4-0.2,3.5
	C576.5,620.2,575.8,620.9,575.5,622.1z"/>
<path class="st3" d="M501.8,487.3c1.2-1.9,2.4-3.7,4.9-4.1c-0.5,1.8,2.2,3.8-0.1,5.4C504.8,489.8,503.2,488.4,501.8,487.3z"/>
<path class="st3" d="M347.9,620.3c0-0.7,0-1.4-0.1-2.1c2.1-1.7,4.7-1.9,8-3C354.2,619.7,350.8,619.6,347.9,620.3z"/>
<path class="st3" d="M656.2,512.8c-5.3-0.1-7.4-3.4-11.1-6.7C650.5,507,652.6,510.2,656.2,512.8z"/>
<path class="st2" d="M300.7,609.2c1-1.3,2.1-2.7,3.1-4c2-0.4,3.9-1.4,6.1-0.9c-1.5,3-5.1,3.6-7.1,6
	C302.4,609.4,301.6,609.2,300.7,609.2z"/>
<path class="st2" d="M598.7,583.2c1.3-3,2.6-6.1,3.8-9.1c0.5,0,1,0.1,1.4,0.1C603.4,578,603.3,581.9,598.7,583.2z"/>
<path class="st3" d="M488.9,460.1c-3.7,1.4-7.5,2.8-11.2,4.2C480.8,461,484.5,459.5,488.9,460.1z"/>
<path class="st2" d="M613.8,548.3c-1-0.7-2-1.4-3-2.1c0-0.9,0.3-1.7,1.2-2.1c0.6,0.1,1.1,0.1,1.7,0.2c0.8,2.1,3.2,2.5,4.5,4.3
	C616.5,550,615.2,548.6,613.8,548.3z"/>
<path class="st2" d="M605.8,612.2c-1.9,2.7-2.7,6.3-5.9,8.1c-0.4,0-0.8-0.1-1.2-0.1c0.9-3.4,4.8-5.1,5.1-8.9
	C604.6,611.2,605.3,611.4,605.8,612.2z"/>
<path class="st3" d="M212.8,603.2c4-2.7,8.5-3,13.1-2.6C221.6,601.9,217.4,603.3,212.8,603.2L212.8,603.2z"/>
<path class="st2" d="M642.8,570.2c0-0.3,0-0.6,0.1-0.9c0.1-0.1,0.3-0.2,0.4-0.2c1.6-0.6,3.6-2.9,4.7-1.3c1.5,2.3-2.3,1.9-2.9,3.4
	c-0.1,0.3-0.2,0.6-0.3,0.9C642.1,573.6,643.1,571.2,642.8,570.2z"/>
<path class="st3" d="M642.8,502.2c0.6,0.4,1.3,0.8,1.9,1.2c-0.1,1.7-0.9,1.9-2.2,1.1c-1.8-1.1-3.7-1.9-5.1-3.8
	C639.8,499.4,641.1,501.6,642.8,502.2z"/>
<path class="st2" d="M583.8,539.2c-1.4,3-4.4,3-7,3.8C578.6,540.7,580.1,538,583.8,539.2z"/>
<path class="st2" d="M559.8,581.1c1.7-0.3,3.6-5,5,0.2C563,585.1,561.4,582.3,559.8,581.1z"/>
<path class="st2" d="M644.8,581.1c-2-0.2-4.2,1-6-1C641.1,578.8,643.7,575.8,644.8,581.1z"/>
<path class="st2" d="M632.8,505.3c-3-0.2-5.4-1.4-7-4.1C628.7,501.5,631.6,502,632.8,505.3z"/>
<path class="st2" d="M660.8,547.2c1.5,1.4,2.1,3.1,1.9,5.1C659.6,551.6,659,549.9,660.8,547.2z"/>
<path class="st2" d="M467.8,481.2c1-1.7,2-3.4,3-5.1c2,3.6-0.9,5.2-3,7.2C467.8,482.6,467.8,481.9,467.8,481.2z"/>
<path class="st2" d="M675,547.3c0.9-0.4,1.9-0.7,2.8-1.1c1.2,0.7,1,1.8,1,2.9c-1.3,0.7-2.7,1.4-4,2.1c0-1,0-2,0-2.9
	C674.8,547.9,674.9,547.6,675,547.3z"/>
<path class="st3" d="M362.2,619.8c-0.8,0.1-1.2-0.4-1.2-1.1c-0.1-1.4,0.3-2.6,1.7-3.1c0.8-0.3,1.7-0.2,1.4,1.1
	C363.8,617.8,363.6,619.2,362.2,619.8z"/>
<path class="st2" d="M620.8,514.2c0-0.3,0-0.7,0-1l0,0c2.5,0,5.1-0.3,7,2.1C625.1,517.2,623.1,514.7,620.8,514.2z"/>
<path class="st3" d="M561.8,474.2c0.6,0.3,1.3,0.7,1.9,1c-1.9,1.8-2.1,1.8-5.7-2.2C559.9,471.8,560.5,474.1,561.8,474.2z"/>
<path class="st2" d="M635.9,520.2c1.9,1.4,3.7,3,5,5.1C638.1,524.6,634.3,525,635.9,520.2z"/>
<path class="st3" d="M212.8,603.2c-2.8,1.5-5.7,2.3-9.4,1.8C206.6,602.8,209.7,603.2,212.8,603.2
	C212.8,603.2,212.8,603.2,212.8,603.2z"/>
<path class="st2" d="M567.8,513.2c1-1.4,2.4-1.8,4-1.9c0,1.6,0,3.5-1.7,4.1C569.1,515.7,568.4,514.2,567.8,513.2z"/>
<path class="st2" d="M458.8,513.2c-1.5,1.1-2.8,3.1-5,1C454.9,511.1,456.8,511.8,458.8,513.2z"/>
<path class="st3" d="M652.8,584.2c3.7,1.2,2.7,4.2,2.3,7C654.4,588.9,653.6,586.6,652.8,584.2L652.8,584.2z"/>
<path class="st2" d="M564.8,577.2c-2.2-0.9-5.5-0.3-5.9-4C561.1,574.2,563.8,574.4,564.8,577.2z"/>
<path class="st3" d="M590.8,602.2c0.2-1.6,0.7-3,1.9-4c0.7,0.7,1.4,1.4,2.1,2.1C594,601.9,592.6,602.5,590.8,602.2z"/>
<path class="st3" d="M310,665.4c-0.5,2.2-1.8,3.6-5,3.9c1.4-2.2,2.5-3.8,4.8-4.1L310,665.4z"/>
<path class="st2" d="M524.8,616.2c1.5-1.2,2.5-3.4,5.1-2.9C529.5,616.6,527,616.2,524.8,616.2z"/>
<path class="st3" d="M281.1,691.8c-0.3-2.4,0.6-3.3,2.3-3.4c0.3,0,1,0.6,1,0.7C284,690.6,282.5,690.9,281.1,691.8z"/>
<path class="st3" d="M301,674.5c0.2-2.8,1.4-3.6,3.3-4.1C304.7,672.7,303.1,673.3,301,674.5z"/>
<path class="st2" d="M528.8,494c-2.3-0.4-4.6-0.6-6-2.8C525.1,491.5,527.6,491.3,528.8,494z"/>
<path class="st3" d="M531.9,542.3c0.2-1.7-0.7-3.7,1-5.1C534.6,539.3,533.9,540.9,531.9,542.3z"/>
<path class="st3" d="M576.8,519.8c1.8-2.3,3.5-2.5,5,0.2C580.2,519.9,578.5,519.8,576.8,519.8z"/>
<path class="st2" d="M454.8,497.4c-1-0.1-2-0.1-2.9-0.2c0.1-1.1-0.3-2.6,1.3-2.7C455.2,494.4,454.7,496.1,454.8,497.4z"/>
<path class="st2" d="M568.8,603.2c1.7-1.4,3.3-1.5,5,0C572.1,605.1,570.5,603.9,568.8,603.2z"/>
<path class="st2" d="M498.8,522.3c0.7,0,1.3-0.1,2-0.1c0.3,0.7,0.7,1.4,1,2c-1.2-0.3-2.4,1.3-3.5,0.2
	C498,524.1,498.6,523,498.8,522.3z"/>
<path class="st2" d="M569.9,615.2c1-0.3,2-0.6,3-0.8c-0.2,2.5-1.9,2.9-4,2.8C569.2,616.6,569.5,615.9,569.9,615.2z"/>
<path class="st2" d="M602.6,572.6c-0.9-0.2-1.9-0.4-2.8-0.6c0.2-1.2,0.5-2.6,2-2.3C603.4,570,602.6,571.6,602.6,572.6z"/>
<path class="st2" d="M600.8,545.1c-0.1,0.3-0.1,0.7-0.2,1c-0.3,0-0.6,0-0.9,0c-1.1-1-1.4-2.8-0.2-3.2
	C601.2,542.3,600.5,544.2,600.8,545.1z"/>
<path class="st3" d="M465.8,505.1c0-1.3,0-2.6,0-3.9C467.9,502.5,469.4,503.8,465.8,505.1z"/>
<path class="st3" d="M554.6,468.6c0.9,1.4,1.4,1.9,1.5,2.5c0.2,1.1-0.7,0.8-1.3,0.7c-0.8-0.1-1-0.8-0.8-1.5
	C554.1,469.9,554.3,469.5,554.6,468.6z"/>
<path class="st3" d="M567.8,624.2c-0.9,0.8,0.3,2.8-1.7,2.9c-0.3,0-1-0.5-1-0.8C565.3,624.8,566.3,624.2,567.8,624.2L567.8,624.2z"
	/>
<path class="st2" d="M583.8,578.2c-0.7,0.3-1.4,0.6-2,1c-1-0.1-2-0.1-3-0.2C580,575.7,582.3,579.3,583.8,578.2z"/>
<path class="st2" d="M463.8,641.2c-0.2,1.8-1.1,2.9-3,3.1c0.3-1.1,0.5-2.1,0.8-3.2c0,0,0.1,0,0.1,0
	C462.4,641.2,463.1,641.2,463.8,641.2z"/>
<path class="st3" d="M404.8,649.3c0,0.7-0.1,1.4-0.1,2.1c-1.3,0-2.6-0.1-3.8-0.1c0,0-0.1-0.1-0.1-0.1
	C401.9,650,403.2,649.3,404.8,649.3z"/>
<path class="st2" d="M462.1,514.2c-0.1-0.4-0.2-0.8-0.3-1.2c0.1-0.7,0.2-1.4,1-1.3c0.3,0,0.7,0.6,0.8,1
	C463.7,513.7,463,514.1,462.1,514.2z"/>
<path class="st2" d="M647.8,532.4c1.4,0.6,2.3,1.6,2.9,2.9C648.7,535.4,647.6,534.5,647.8,532.4z"/>
<path class="st2" d="M415.6,695.2c-0.4,1.5-1.4,2.4-2.8,3C412.6,696.1,413.5,695,415.6,695.2z"/>
<path class="st2" d="M648.9,560.2c-0.3,1.9-1.6,2-3.1,1.6C646.1,560,647.6,560.2,648.9,560.2z"/>
<path class="st2" d="M315.7,600.2c-0.5,1.3-1.5,2-2.9,2C312.9,600.3,314.3,600.2,315.7,600.2z"/>
<path class="st2" d="M426.7,681.2c-0.5,1.4-1.5,2-2.9,2.2C423.8,681.3,425.2,681.2,426.7,681.2z"/>
<path class="st2" d="M257.9,650.3c-0.7,1.2-1.7,1.9-3.1,2C254.9,650.1,256.5,650.2,257.9,650.3z"/>
<path class="st2" d="M567.8,486.1c-0.8,0.2-1.5,0-2.1-0.6c0.2-0.5,0.5-1.6,0.7-1.5C567.7,484.1,567.7,485.2,567.8,486.1z"/>
<path class="st3" d="M394.8,654.2c0.7-1.9,2.3-2.1,4-2l0,0C397.9,653.6,396.4,654.1,394.8,654.2
	C394.8,654.2,394.8,654.2,394.8,654.2z"/>
<path class="st3" d="M440.8,664.2c0,1.5,0,3-2.1,3C438.9,665.8,439.5,664.8,440.8,664.2z"/>
<path class="st2" d="M564.8,619.2c0.6-1.3,1.5-2.1,3-1.8C567.6,619.3,566.2,619.2,564.8,619.2z"/>
<path class="st2" d="M422.4,714.9c-0.1,0.3-0.2,0.6-0.4,0.8c-0.3-0.1-0.7-0.2-0.8-0.4c-0.1-0.2,0.2-0.5,0.3-0.8
	C421.8,714.7,422.1,714.8,422.4,714.9z"/>
<path class="st2" d="M575.5,622.1c0.3-1.2,1-1.9,2.2-2.1C577.8,621.6,577,622.2,575.5,622.1z"/>
<path class="st2" d="M609.8,591.2c-0.1,1.3-0.7,1.9-2,1.9C607.9,591.8,608.6,591.2,609.8,591.2z"/>
<path class="st2" d="M547.7,625.1c-0.6,0-1.2,0-1.8,0c0.1-1.2,0.7-1.8,1.8-1.9C547.7,623.9,547.7,624.5,547.7,625.1z"/>
<path class="st2" d="M507.9,456.5c-0.3,0.3-0.4,0.6-0.6,0.6c-0.5,0-1.1,0.1-1.4-0.1c-0.8-0.7,0.2-0.7,0.5-0.7
	C506.9,456.2,507.4,456.4,507.9,456.5z"/>
<path class="st3" d="M249.8,584.2c-0.2,0.5-0.5,1.1-0.7,1.6c0,0-0.7-0.2-0.7-0.3C248.2,584.4,249,584.3,249.8,584.2
	C249.8,584.2,249.8,584.2,249.8,584.2z"/>
<path class="st2" d="M548.5,465c-0.1,0.3-0.2,0.7-0.4,0.8c-0.2,0.1-0.5-0.2-0.8-0.3c0.1-0.3,0.2-0.7,0.4-0.8
	C547.8,464.6,548.2,464.8,548.5,465z"/>
<path class="st2" d="M524.5,530c-0.1,0.3-0.2,0.7-0.4,0.8c-0.2,0.1-0.5-0.2-0.8-0.3c0.1-0.3,0.2-0.7,0.4-0.8
	C523.8,529.6,524.2,529.8,524.5,530z"/>
<path class="st2" d="M563.9,629.1c-0.4,0.2-0.8,0.5-1.1,0.7c-0.2-0.2-0.5-0.5-0.4-0.7c0.2-0.8,0.9-0.8,1.5-0.9
	C563.8,628.5,563.9,628.8,563.9,629.1z"/>
<path class="st3" d="M341.8,524.2c0.5-0.8,1.2-1,2-0.8c0.1,0,0.2,0.2,0.3,0.4c-0.7,0.2-1.5,0.3-2.2,0.5
	C341.9,524.3,341.8,524.2,341.8,524.2z"/>
<path class="st2" d="M529.8,599.2c0.8-1,1.8-1.1,2.9-0.8C532,599.4,530.9,599.2,529.8,599.2z"/>
<path class="st2" d="M428.9,677.2c-0.1,1.1,0.1,2.3-1.1,2.9C427.9,679,427.7,677.9,428.9,677.2z"/>
<path class="st2" d="M530.7,545.2c0.4-0.3,0.7-0.7,1.1-1c0.4,0.4,0.7,0.7,1.1,1.1C532.1,546.2,531.4,546.3,530.7,545.2z"/>
<path class="st2" d="M608.9,566.2c-0.1,0.3-0.1,0.6-0.1,0.8c-0.8,0.1-1.5,0-2-0.8C607.4,565.1,608.2,566.1,608.9,566.2z"/>
<path class="st3" d="M589.8,604.3c0-0.8,0.2-1.6,1-2.1C590.9,603.1,590.6,603.8,589.8,604.3z"/>
<path class="st2" d="M523.8,473c-0.8,0.1-1.5-0.1-1.9-0.8C522.5,472.5,523.1,472.8,523.8,473z"/>
<path class="st2" d="M567.2,574.8c-0.3,0.1-0.4,0.1-0.6,0.2c0-0.1-0.1-0.2-0.1-0.4C566.7,574.6,566.9,574.7,567.2,574.8z"/>
<path class="st3" d="M249.8,584.2c0.3-0.3,0.6-0.6,0.9-0.9c0.1,0.2,0.2,0.3,0.4,0.5C250.7,584,250.2,584.1,249.8,584.2
	C249.8,584.2,249.8,584.2,249.8,584.2z"/>
<path class="st4" d="M461.8,483.2c-0.3,0.2-0.6,0.5-1,0.7c-0.1-0.2-0.2-0.4-0.3-0.6C461,483.3,461.4,483.3,461.8,483.2
	C461.8,483.2,461.8,483.2,461.8,483.2z"/>
<path class="st2" d="M431.8,668.2c0.1-0.7,0.2-1.5,1-1.8C432.8,667.2,432.6,667.8,431.8,668.2z"/>
<path class="st2" d="M261.2,640.9c0.1,0,0.3,0.1,0.3,0.1c0,0.1-0.1,0.3-0.1,0.4c-0.1,0-0.3-0.1-0.3-0.1
	C261.1,641.2,261.2,641.1,261.2,640.9z"/>
<path class="st3" d="M309.7,665.1c0.5-0.8,1.2-1,2.1-0.9l0,0c-0.4,0.8-1.1,1.1-1.9,1.2C310,665.4,309.7,665.1,309.7,665.1z"/>
<path class="st2" d="M259.6,643.2c-0.1,0.1-0.2,0.2-0.3,0.3c-0.1-0.1-0.2-0.3-0.2-0.4c0-0.1,0.2-0.2,0.3-0.3
	C259.4,643,259.5,643.1,259.6,643.2z"/>
<path class="st2" d="M460.9,644.2c-0.1,0.8-0.1,1.6-1.1,1.9C459.8,645.3,460,644.6,460.9,644.2z"/>
<path class="st3" d="M314.1,661.9c0.1,0,0.3,0,0.4,0c0.1,0.1,0.1,0.3,0.1,0.4c-0.2,0.5-0.5,0.4-0.6,0
	C313.9,662.2,314,662,314.1,661.9z"/>
<path class="st2" d="M485.9,500.3c0.1-0.6,0.3-0.9,0.9-0.8C486.6,500,487,501,485.9,500.3z"/>
<path class="st3" d="M398.8,652.2c0.4-0.9,1.1-1,1.9-1.1c0,0,0.1,0.1,0.1,0.1C400.4,652.1,399.7,652.3,398.8,652.2
	C398.8,652.2,398.8,652.2,398.8,652.2z"/>
<path class="st2" d="M556.8,510.2c0.3,0,0.7,0,1,0C557.5,510.9,557.1,510.9,556.8,510.2z"/>
<path class="st2" d="M448,651.2c0.2-0.2,0.5-0.5,0.7-0.7C448.5,650.7,448.3,650.9,448,651.2z"/>
<path class="st2" d="M635.8,506.2l-0.5,0c0,0-0.5,0-0.5,0C635.2,505.6,635.5,505.6,635.8,506.2z"/>
<path class="st2" d="M445,654.2c0.2-0.2,0.5-0.5,0.7-0.7C445.5,653.7,445.3,653.9,445,654.2z"/>
<path class="st3" d="M232.8,647.2c-0.1,0.2-0.3,0.3-0.4,0.5c0-0.1,0-0.2,0.1-0.3C232.6,647.3,232.7,647.3,232.8,647.2
	C232.8,647.2,232.8,647.2,232.8,647.2z"/>
<path class="st3" d="M311.8,664.2c0.1-0.2,0.3-0.3,0.4-0.5c0,0.1,0,0.2,0,0.3C312.1,664.1,311.9,664.2,311.8,664.2
	C311.8,664.2,311.8,664.2,311.8,664.2z"/>
<path class="st2" d="M623.8,498.4c-0.6-0.4-0.9-0.8,0.1-1.1C623.8,497.6,623.8,498,623.8,498.4z"/>
<path class="st2" d="M610.8,528.2c0.3,0.3,0.5,0.6,0.8,0.9C611.3,528.8,611.1,528.5,610.8,528.2z"/>
<path class="st2" d="M619.7,580.2l-0.5,0c0,0-0.5-0.1-0.5-0.1c0.3-0.3,0.5-0.6,0.8-0.9C619.7,579.6,619.8,579.9,619.7,580.2z"/>
<path class="st2" d="M658.8,543.1c0.3,0.4,0.7,0.7,1,1.1C659.4,543.8,659.1,543.5,658.8,543.1z"/>
<path class="st3" d="M316.8,545.2c0.1-0.2,0.3-0.3,0.4-0.5c0,0.1,0,0.2-0.1,0.3C317.1,545.1,316.9,545.2,316.8,545.2
	C316.8,545.2,316.8,545.2,316.8,545.2z"/>
<path class="st3" d="M563.9,629.1c0-0.3,0-0.6,0-0.9c0.1,0.2,0.3,0.4,0.4,0.6C564.1,628.9,564,629,563.9,629.1z"/>
<path class="st3" d="M652.8,584.2c-0.1-0.1-0.3-0.3-0.4-0.4c0.1,0,0.2,0,0.3,0.1C652.7,584,652.8,584.1,652.8,584.2
	C652.8,584.2,652.8,584.2,652.8,584.2z"/>
<path class="st2" d="M539.8,458.2c0.1,0.1,0.3,0.2,0.4,0.2C540.1,458.4,539.9,458.3,539.8,458.2
	C539.8,458.2,539.8,458.2,539.8,458.2z"/>
<path class="st3" d="M567.8,624.2c0.2-0.2,0.3-0.3,0.5-0.5c0,0.1,0,0.2-0.1,0.3C568.1,624.1,568,624.2,567.8,624.2
	C567.8,624.2,567.8,624.2,567.8,624.2z"/>
<path class="st2" d="M554.9,616.5c0.3-0.1,0.5-0.2,0.8-0.2c0.1,0.3,0.1,0.6,0,0.9C555.4,617,555.1,616.7,554.9,616.5z"/>
<path class="st1" d="M621.8,494.2c-0.3,0-0.7-0.1-1-0.1C621.2,493.6,621.5,493.7,621.8,494.2z"/>
<path class="st4" d="M444.8,539.2c1,0.2,3.2-0.1,2.5,1.3c-1.4,2.9-0.2,7.2-2.5,8.8c-5.4,3.7-7.8,9.2-10.5,14.4
	c-2,3.8-5.1,3.1-7.9,3.2c-2.5,0.1-1.5-1.9-0.6-3.2c2-2.9,2.9-6.2,4-9.5C435.4,549.8,439,543.5,444.8,539.2z"/>
<path class="st2" d="M424.8,637.2c-0.6,0-1.2,0-1.9-0.1c-0.4-0.7-0.8-0.7-1.2,0c-0.6,0-1.1,0-1.7-0.1c-0.5-2.6,0.1-3.8,3.2-4
	c4.5-0.2,8.2,2.1,12.3,3.2c1.4,0.3,3.4,2.1,2.6-1.5c-0.3-1.1,0.6-1.8,1.3-1.3c1.9,1.5,4.9,2.6,5,5c0.1,2.9,2.5,6.6-1.7,8.8
	c-3.6-4.5-9-6-14-8.2C427.8,637.9,426.4,637.2,424.8,637.2z"/>
<path class="st4" d="M349.2,607.1c-0.3,0-1.5,0.5-1.9-0.8c-0.3-0.9,0.5-1.5,1.1-2.1c2.3-2.1,5.8-2.9,6.3-6.9c0.1-1.3,2.1-1,3.5-0.4
	c2.1,1,4.2,2.1,5.8,3.8c0.8,0.8,3.2,0.2,2.3,2.4c-0.5,1.3-1.7,2-3.1,2.2C358.6,605.8,354.2,606.4,349.2,607.1z"/>
<path class="st4" d="M429.6,621.4c3.2,1.9,8.9-0.9,11,5c0.7,1.8,0.6,3.7-1.1,2.7c-4.8-2.9-10.1,1-14.9-1.7c-1.8-1-4.9-0.9-4.5-3.7
	c0.3-2.4,3-1.1,4.7-1.4C426.3,621.9,427.8,621.7,429.6,621.4z"/>
<path class="st2" d="M385.9,615.1c-0.4-0.6-0.8-1.2-1.2-1.8c1.7-3.5,4.8-1.2,5.6-0.2c4,5.1,9.6,7.4,15.3,9.7
	c1.1,0.4,2.4,1.1,2.7,2.8c-3.8,1.8-7-0.9-10.4-1.4c-3-2.3-6-4.6-9-7C388.3,615.9,387.3,615.2,385.9,615.1z"/>
<path class="st2" d="M444.8,539.2c-5.7,4.3-9.4,10.6-14.9,15c-0.7-6.9,5.8-9.2,8.6-13.9C439.8,538.2,442.2,537.1,444.8,539.2z"/>
<path class="st2" d="M522.8,561.2c-0.9,0.4-1.6,1.1-2,2c-1.3,0-2,0.7-2,2c0,0,0,0,0,0c-0.9,0.3-0.8,0.6-0.1,1c0,0.2-0.1,0.5-0.1,0.7
	c-2.6,0.3-3.6-1.1-2.5-3.2c2.1-3.9,4.5-7.6,8.7-9.7c2.3-1.2,3-0.4,2.8,1.9c0,0,0,0,0,0C525,556.8,523.4,558.5,522.8,561.2z"/>
<path class="st2" d="M359.4,587.2c-3.9-2.8-5-6.1-5.5-9.8c-0.1-0.9-0.4-2.2,0.7-2.7c1.2-0.5,1.7,0.7,2.3,1.4
	C359,579.3,360,582.7,359.4,587.2z"/>
<path class="st1" d="M463.8,641.2c-0.7,0-1.4-0.1-2.1-0.1c-0.2-4.4,4.6-4.8,6.2-7.9c0.3-0.3,0.6-0.6,1-0.9c1.5,0.1,2.9-1.9,4.4-0.6
	c0.9,0.7-0.3,1.7-0.4,2.6C469.9,636.6,466.9,638.9,463.8,641.2z"/>
<path class="st1" d="M451.7,527c-0.2,0.7-0.4,1-0.9,0.2C451.1,527.1,451.4,527.1,451.7,527z"/>
<path class="st3" d="M522.8,561.2c0.6-2.7,2.2-4.4,4.9-5.1C527.1,558.8,526.3,561.3,522.8,561.2z"/>
<path class="st3" d="M518.9,565.2c0-1.3,0.6-2,2-2C520.8,564.5,520.2,565.2,518.9,565.2z"/>
<path class="st3" d="M518.8,566.3c-0.7-0.4-0.8-0.7,0.1-1C518.8,565.6,518.8,565.9,518.8,566.3z"/>
<path class="st2" d="M620.8,513.2c-0.1-0.1-0.3-0.1-0.4-0.2C620.6,513.1,620.7,513.2,620.8,513.2
	C620.8,513.2,620.8,513.2,620.8,513.2z"/>
<path class="st1" d="M300.7,609.2c0.8,0,1.6,0.2,2.1,1c-0.8,1.1-1.8,1.4-3,1C299.6,610.3,299.9,609.6,300.7,609.2z"/>
<path class="st2" d="M614.9,494.1c0.4,0.1,0.8,0.2,1.3,0.4c-0.1,0.2-0.3,0.4-0.4,0.5c-0.3-0.2-0.7-0.5-1-0.7
	C614.7,494.3,614.9,494.1,614.9,494.1z"/>
<path class="st2" d="M621.2,496.8c-0.1,0.1-0.3,0.2-0.4,0.1c-0.5-0.1-0.5-0.3-0.1-0.6c0.1-0.1,0.3,0,0.4,0.1
	C621.2,496.6,621.1,496.7,621.2,496.8z"/>
<path class="st1" d="M547.9,498.3c-0.2,0.1-0.4,0.3-0.6,0.4c0.2-0.2,0.3-0.4,0.4-0.5C547.7,498.1,547.9,498.3,547.9,498.3z"/>
<path class="st3" d="M385.9,615.1c1.4,0.1,2.4,0.8,2.9,2.1C387.3,617.2,385.8,617.2,385.9,615.1z"/>
<path class="st3" d="M424.8,637.2c1.6,0.1,3,0.7,4,2C426.3,640.9,425.4,639.3,424.8,637.2z"/>
<path class="st3" d="M421.7,637.2c0.4-0.8,0.8-0.8,1.2,0C422.5,637.1,422.1,637.1,421.7,637.2z"/>
<path class="st6" d="M670.5,519c-6.4-3.2-9-11-16.2-13.3c-2.4-0.7-4.6-2-6.8-3.1c-12-5.7-24.2-10.6-36.9-14.4
	c-2.7-0.8-5.6-1.9-8.1,0.1c-3.1,2.4-6.1,1.6-9.4,0.6c-5.5-1.7-10.6-4.6-16.1-6.5c-3.3-1.2-7.8-1.8-9.8-5.4
	c-3.6-6.5-9.5-10.1-15.8-12.9c-3.6-1.6-7.6-2.8-10.5-5.4c-3.3-3-7.2-3.7-11-5.1c-2.6-0.9-5,1-7.3,0.1c-8.1-3.1-16.4-2.3-24.6-0.9
	c-7.6,1.3-15.4,2-22.5,5.6c-9.3,4.8-14.7,13.3-18.5,22.2c-4.9,11.2-13.9,15.8-24.4,17.9c-7.6,1.5-15.3,2.6-22.9,4
	c-7.6,1.4-15.1,3.5-22.6,5.5c-6.5,1.7-13.7,2-20.5,3.2c-15.8,2.6-31.5,6.4-47,10.6c-4.6,1.3-9,3.7-13.8,4
	c-13.7,0.8-26.8,5.4-40.6,6.7c-7,0.6-14.2,1.8-20.9,1c-12.9-1.4-24.9,1.1-36.4,5.5c-11,4.2-15.2,13.9-5.9,23.4
	c1.4,1.5,5.2,0.9,4.5,3.7c-0.8,2.9-4.5,1.2-6.6,2.5c-0.6,0.4-1.7,0-2.5,0.2c-7.7,1.6-15.7,2.2-22.1,7.8c-9,7.9-9.7,17.4-2.8,25.2
	c1.2,1.3,1.4,4.3,4.2,3.6c6.7-1.7,3.7,2,2.6,4.7c-0.7,1.8-2,3-3.4,4.3c-7.2,6.5-8.1,14.2-5,23c1.3,3.8,5.3,5.1,7.4,8.2
	c4.3,6.1,11.4,5.3,17.5,5.6c3.2,0.1,7.2-0.3,10.3-2.6c3.8-2.9,5.8-2.3,7.9,2c3.2,6.7,12.7,9,18.3,4.5c1.8-1.4,4.1-3.6,6-1.3
	c1.7,2,0.6,4.7-1.4,6.6c-3.7,3.6-7.5,7.1-10.9,11c-4.8,5.3-9.2,11-11.3,18c-1.7,5.8-1.6,11.4,3.3,16.1c5.3,5,22.3,8.5,30.2,4.1
	c5.7-3.2,11.8-5.9,15.9-11.4c0.9-1.2,2.3-3.3,4-1.9c1.8,1.5,0.1,3.1-0.9,4.7c-6.8,11.1-8.4,23.2-6.3,35.9c0.1,0.6,0.5,1.3,1,1.6
	c6.4,3.6,14,5.2,20.6,4.4c8.8-0.9,17.7-4.4,25-10.2c8.3-6.6,16.7-13.1,24.6-20.1c10-8.7,21.4-15.7,30.7-25.3
	c0.9-0.9,1.8-3.1,3.5-1.6c1.3,1.1,0.2,2.9-0.6,4.1c-6.9,11.7-14.1,23.3-23.1,33.6c-5.6,6.3-9.6,13.6-11.5,21.8
	c-2.7,11.9,4.2,19.6,14.8,21.3c14.7,2.3,27.5-4,39.1-12.6c3.2-2.3,6.2-5.1,8.6-8.2c6.1-7.9,12.4-15.6,19.4-22.6
	c1.8-1.8,4.5-7,6.5,0.1c0.3,0.9,1.4,0.6,2.2,0.6c8.2-0.1,16.5,1.3,24.6-1.2c2.7-0.8,6.3,0,8-2.4c4-5.6,10.3-7.7,15.5-11.4
	c15.5-11,30.4-22.6,43-36.9c9-10.3,19.5-18.9,29.9-27.6c5-4.1,11-7.2,17.3-8.4c4.6-0.9,8.4-2.5,12.2-5.1c3.6-2.5,7.4-6.2,11.3-6.5
	c5.7-0.4,12.1-0.9,17.6,1.3c5.2,2.1,9.5,1.5,14.1-0.9c2.5-1.3,5.1-1.5,8-1.5c6.5-0.2,11.1,4.6,17.4,5.2c6.8,0.6,17.3-5.9,18-12.8
	c1-10.4,2.5-20.8-0.7-31.1c-0.6-2-0.2-4.3-0.2-6.5c0-1.3,1.2-2.9,1.9-1.9c2.8,4.1,6.5,0.7,9.2,1.6c10.9-0.1,17.6-4.6,19.8-14.6
	c1.4-6.2,0.3-11.6-2-16.9C682.6,536.5,681.6,524.6,670.5,519z"/>
<path class="st6" d="M691.8,544.8c-0.4-1.3-0.7-2.2-0.7-2.3C691.3,543.3,691.5,544.1,691.8,544.8z"/>
<path class="st7" d="M695.9,556.7c-0.5-0.2-2.9-7.9-4.1-11.8c-0.3-0.7-0.5-1.5-0.7-2.3c0,0,0,0,0,0h0c-0.2-1.2-0.4-2.4-0.7-3.3
	c-8-25.9-28.1-38.1-51.2-47.6c-9.3-3.8-18.9-6.3-28.4-9.2c-5-1.5-10.5-2.8-15.6-2.4c-12.3,0.8-21.5-5.2-29.5-13.1
	c-9.2-9.1-20.5-14.3-32.1-19.1c-1.1-0.4-1.7-0.9-1.8-2c-0.7,0-1.3,0-2,0c-0.1,1.1-0.5,1.9-1.8,1.9c-1.4,0.1-2.2-0.5-2.2-1.9
	c-8.3,0-16.7,0-25,0c-0.1,0.9-0.4,1.9-1.4,1.8c-5.4-0.2-10.4,2.1-15.5,3.3c-12.5,2.7-23.1,8.7-27.8,21c-4.7,12.3-13.5,18.3-25.5,21
	c-16.3,3.6-32.6,7.3-48.9,10.8c-4,0.9-8.4,0.3-12.3,1.6c-13.2,4.6-27.1,5.6-40.5,9.2c-12.2,3.2-24.6,6.3-37.2,8.2
	c-13.7,2.1-27.3,4.8-41.3,5.2c-5.5,0.2-10.8-2.2-16.2-1.9c-11.9,0.7-22.8,4.2-33.4,10.1c-7.2,4.1-9.1,9.8-10.1,16.9
	c-0.6,4,3.1,8.8,0.8,11.2c-2.3,2.3-7.5,1.7-11,3.8c-0.4,0.3-0.9,0.5-1.4,0.6c-16.6,5.9-21.9,24.5-10.8,37.9c2.6,3.1,2.2,5.4,0.2,8.3
	c-3,4.3-5,9-4.7,14.4c0.5,9.3,4,17.2,11.8,22.5c8.2,5.5,17.4,6.4,27,4.4c2.5-0.5,4.9-1.5,6.8,1.7c1.6,2.8,4.5,4.3,7.7,5
	c6.5,1.3,6.4,1.7,2.2,7.2c-6.8,8.9-13.3,17.9-11.5,30.2c0.7,4.9,2,9.3,6.4,11.7c7.7,4.3,15.7,7.8,24.9,5.1c3.8-1.1,7.9-0.8,11.6-2.5
	c2.1-0.9,2.5,0.7,2,2c-2.3,6.2-0.5,12.2,1.4,18c2.3,7,5.4,13.6,14.1,15.1c4.1,0.7,7.9-1,11.8-0.7c11.5,0.7,21.1-4,29.7-10.7
	c9.2-7,17.6-15.1,26.7-22.3c4.4-3.5,7.7-8.4,13.4-10.1c0.1-0.1,0.2-0.3,0.3-0.4c-0.1,0.1-0.1,0.3-0.2,0.4c0.2,1.8-0.7,3.1-1.9,4.4
	c-8.1,8.7-15,18-19.9,28.9c-3.7,8.1-2.5,21,3.2,25.3c10.7,8.1,22.8,9.3,35,5.8c13.3-3.8,23.5-13.4,33.2-22.9
	c5.3-5.2,10-11.1,15-16.6c1.2-1.3,2.5-2.3,4.4-1.8c6.1,1.7,12.3,1.3,18.4,0.7c11.5-1.1,22.6-4.1,31.1-12.7
	c7.7-7.8,16.9-13.7,25.7-20.1c9.2-6.6,18.2-13.3,25-22.6c1.5-2,2.2-4.4,4.2-6.1c5.1-4.2,9.9-8.8,15-13.1
	c6.7-5.7,13.4-11.3,22.2-13.7c6.4-1.8,12.6-4.4,17.9-8.5c2.1-1.6,4.4-2.4,7-2.1c11.4,1.1,22.8,1.5,34.1-0.9
	c5.6-1.2,10.9-0.8,16.2,2.4c2.8,1.7,6.6,2.2,10.2,1.2c10.3-2.8,15.6-10.5,18.2-20c2.6-9.3,2.4-19,2.1-28.7c-0.1-0.1-0.3-0.2-0.4-0.2
	c0.1,0.1,0.3,0.2,0.4,0.2c9.4,1.2,17.7-0.2,24.2-8.2c0.3-0.4,0.5-0.7,0.8-1.1l5-10.6C695.9,562.2,695.9,559.4,695.9,556.7z
	 M688.8,563.2c-2.2,10-8.9,14.6-19.8,14.6c-2.7-1-6.4,2.4-9.2-1.6c-0.7-1-1.9,0.6-1.9,1.9c0,2.2-0.4,4.5,0.2,6.5
	c3.2,10.3,1.7,20.8,0.7,31.1c-0.6,6.9-11.1,13.4-18,12.8c-6.3-0.6-10.9-5.4-17.4-5.2c-2.9,0.1-5.6,0.2-8,1.5
	c-4.6,2.4-8.9,3-14.1,0.9c-5.5-2.2-11.9-1.8-17.6-1.3c-3.9,0.3-7.7,4-11.3,6.5c-3.7,2.6-7.5,4.2-12.2,5.1
	c-6.3,1.2-12.3,4.3-17.3,8.4c-10.5,8.6-20.9,17.3-29.9,27.6c-12.5,14.3-27.5,25.9-43,36.9c-5.2,3.7-11.6,5.8-15.5,11.4
	c-1.7,2.3-5.3,1.6-8,2.4c-8.1,2.4-16.4,1.1-24.6,1.2c-0.8,0-1.9,0.4-2.2-0.6c-2-7.1-4.7-1.9-6.5-0.1c-7.1,7-13.4,14.7-19.4,22.6
	c-2.4,3.1-5.4,5.8-8.6,8.2c-11.6,8.6-24.4,14.9-39.1,12.6c-10.6-1.7-17.5-9.3-14.8-21.3c1.9-8.2,5.9-15.5,11.5-21.8
	c9-10.3,16.1-21.9,23.1-33.6c0.8-1.3,1.8-3,0.6-4.1c-1.6-1.5-2.6,0.7-3.5,1.6c-9.3,9.6-20.7,16.6-30.7,25.3
	c-8,7-16.4,13.5-24.6,20.1c-7.3,5.9-16.1,9.3-25,10.2c-6.6,0.7-14.2-0.8-20.6-4.4c-0.5-0.3-0.9-1-1-1.6c-2.1-12.7-0.5-24.8,6.3-35.9
	c1-1.6,2.7-3.2,0.9-4.7c-1.7-1.4-3.1,0.7-4,1.9c-4.1,5.5-10.2,8.2-15.9,11.4c-7.9,4.4-24.9,0.9-30.2-4.1c-4.9-4.7-5-10.3-3.3-16.1
	c2-7,6.5-12.7,11.3-18c3.4-3.8,7.2-7.4,10.9-11c2.1-2,3.1-4.6,1.4-6.6c-1.9-2.3-4.3-0.1-6,1.3c-5.7,4.5-15.2,2.1-18.3-4.5
	c-2.1-4.4-4.1-4.9-7.9-2c-3.1,2.3-7,2.8-10.3,2.6c-6.1-0.2-13.3,0.5-17.5-5.6c-2.2-3.1-6.1-4.4-7.4-8.2c-3.1-8.8-2.2-16.5,5-23
	c1.4-1.2,2.7-2.5,3.4-4.3c1.1-2.7,4.1-6.3-2.6-4.7c-2.8,0.7-3-2.2-4.2-3.6c-6.9-7.8-6.2-17.3,2.8-25.2c6.3-5.6,14.4-6.2,22.1-7.8
	c0.8-0.2,1.8,0.2,2.5-0.2c2.1-1.3,5.8,0.4,6.6-2.5c0.8-2.9-3-2.2-4.5-3.7c-9.2-9.5-5.1-19.2,5.9-23.4c11.5-4.4,23.6-6.9,36.4-5.5
	c6.7,0.8,13.9-0.4,20.9-1c13.8-1.3,26.9-5.8,40.6-6.7c4.9-0.3,9.2-2.7,13.8-4c15.5-4.2,31.1-7.9,47-10.6c6.8-1.1,14-1.5,20.5-3.2
	c7.5-2,15-4.1,22.6-5.5c7.6-1.4,15.4-2.5,22.9-4c10.5-2.1,19.6-6.7,24.4-17.9c3.8-8.9,9.2-17.4,18.5-22.2c7.1-3.6,14.9-4.2,22.5-5.6
	c8.2-1.4,16.5-2.2,24.6,0.9c2.4,0.9,4.7-1.1,7.3-0.1c3.9,1.4,7.8,2.1,11,5.1c2.9,2.7,6.9,3.8,10.5,5.4c6.3,2.8,12.2,6.4,15.8,12.9
	c2,3.5,6.5,4.2,9.8,5.4c5.5,1.9,10.5,4.8,16.1,6.5c3.2,1,6.3,1.8,9.4-0.6c2.5-2,5.4-0.9,8.1-0.1c12.7,3.8,25,8.7,36.9,14.4
	c2.2,1.1,4.4,2.3,6.8,3.1c7.2,2.3,9.8,10,16.2,13.3c11.2,5.6,12.1,17.5,16.3,27.4C689.1,551.7,690.2,557.1,688.8,563.2z"/>
<path d="M499.5,447.7c0,0,29.9-1.6,34.1,0.2c4.3,1.8,2-10.3,2-10.3l-28.2-11.7l-12.8,4.1L499.5,447.7z"/>
</svg>
